<?xml version="1.0" encoding="UTF-8" standalone="no"?>
<svg width="45px" height="34px" viewBox="0 0 45 34" version="1.1" xmlns="http://www.w3.org/2000/svg" xmlns:xlink="http://www.w3.org/1999/xlink">
    <!-- Generator: Sketch 39.1 (31720) - http://www.bohemiancoding.com/sketch -->
    <title>Group</title>
    <desc>Created with Sketch.</desc>
    <defs></defs>
    <g id="Page-1" stroke="none" stroke-width="1" fill="none" fill-rule="evenodd">
        <g id="Artboard-3" transform="translate(-1.000000, -7.000000)" fill="#FFFFFF">
            <g id="Group" transform="translate(1.000000, 7.000000)">
                <path d="M44.0865011,15.1600802 C43.6553757,12.613473 41.3339311,10.5416273 38.9121234,10.5416273 L38.619761,10.5416273 C38.1100905,4.99808757 31.4555737,0.632724549 25.892834,0.632724549 L19.8082056,0.632724549 C14.1974662,0.632724549 7.48534959,4.99808757 6.97131544,10.5416273 L6.34906358,10.5416273 C3.92812854,10.5416273 1.60668399,12.613473 1.17468585,15.1600802 C1.16944951,15.1897528 1.16683134,15.2194254 1.16595862,15.2499707 L0.679851619,29.2187833 C0.679851619,31.8273539 3.06151409,33.9506902 5.98862876,33.9506902 L7.59793093,33.9506902 L10.643736,33.9506902 L10.6524632,33.9506902 L34.9473405,33.9506902 L37.9931455,33.9506902 L39.4924845,33.9506902 C42.4195992,33.9506902 44.8012617,31.8273539 44.8003889,29.1847471 L44.0865011,15.1600802 L44.0865011,15.1600802 Z M2.03170034,29.2423468 L2.51518917,15.3442248 C2.85555134,13.4704875 4.60099837,11.8952215 6.34906358,11.8952215 L6.9215702,11.8952215 L6.9215702,32.597096 L5.98862876,32.597096 C3.80681997,32.597096 2.03170034,31.0811753 2.03170034,29.2423468 L2.03170034,29.2423468 Z M11.3183513,11.8952215 L34.2709797,11.8952215 L34.270107,32.597096 L11.319224,32.597096 L11.3183513,11.8952215 L11.3183513,11.8952215 Z M11.3881692,10.5416273 C11.9990756,7.44520431 16.6786191,5.03212379 19.8073329,5.03212379 L25.8919613,5.03212379 C29.2912194,5.03212379 33.6007281,7.62062174 34.1959255,10.5416273 L11.3881692,10.5416273 L11.3881692,10.5416273 Z M35.6228285,32.597096 L35.6237012,11.2153699 C35.6237012,6.84302509 29.8104898,3.67852962 25.8919613,3.67852962 L19.8073329,3.67852962 C15.8442954,3.67852962 9.96562982,6.84302509 9.96562982,11.2153699 L9.96650255,32.597096 L8.27341893,32.597096 L8.27341893,11.2153699 C8.27341893,6.24520948 14.6155007,1.98719144 19.8073329,1.98719144 L25.8919613,1.98719144 C31.0340482,1.98719144 37.3159121,6.24520948 37.3159121,11.2153699 L37.3159121,32.597096 L35.6228285,32.597096 L35.6228285,32.597096 Z M39.4916118,32.597096 L38.6686335,32.597096 L38.6686335,11.8952215 L38.9112507,11.8952215 C40.6724067,11.8952215 42.4318173,13.494051 42.7433796,15.3075705 L43.4476675,29.2179106 C43.4485402,31.0811753 41.6734206,32.597096 39.4916118,32.597096 L39.4916118,32.597096 Z" id="Shape"></path>
                <path d="M5.15081419,25.176328 L4.42994456,24.7652752 L4.68216166,17.5356336 C4.69525251,17.1621079 4.40289014,16.8488002 4.02936447,16.8357093 C3.67852962,16.8357093 3.34340379,17.1149809 3.33031294,17.4876338 L2.99780528,27.0177746 C2.98471442,27.3913003 3.2770768,27.704608 3.65060247,27.7176989 C3.65845698,27.7176989 3.66631149,27.7185716 3.674166,27.7185716 C4.03721898,27.7185716 4.33656315,27.4305728 4.349654,27.0657744 L4.37670843,26.2907959 L4.48143525,26.3501411 C4.5870348,26.410359 4.7022343,26.4400316 4.81568836,26.4400316 C5.05045098,26.4400316 5.27910455,26.3169776 5.40390401,26.097924 C5.58892139,25.7732709 5.47546734,25.3613454 5.15081419,25.176328 L5.15081419,25.176328 Z" id="Shape"></path>
            </g>
        </g>
    </g>
</svg>