<?xml version="1.0" encoding="UTF-8"?>
<svg width="53px" height="43px" viewBox="0 0 53 43" version="1.1" xmlns="http://www.w3.org/2000/svg" xmlns:xlink="http://www.w3.org/1999/xlink">
    <!-- Generator: Sketch 40.3 (33839) - http://www.bohemiancoding.com/sketch -->
    <title>Page 1</title>
    <desc>Created with Sketch.</desc>
    <defs></defs>
    <g id="Page-1" stroke="none" stroke-width="1" fill="none" fill-rule="evenodd">
        <g id="Profile_PastEvents" transform="translate(-392.000000, -615.000000)" fill="#FFFFFF">
            <g id="Group-4">
                <g id="Page-1" transform="translate(392.000000, 615.000000)">
                    <path d="M6.35564949,10.2528968 C4.32444978,10.2528968 2.62090059,11.9488787 2.62090059,13.9708859 L2.62090059,36.6048463 C2.62090059,38.626931 4.32444978,40.322758 6.35564949,40.322758 L46.7169006,40.322758 C48.7480225,40.322758 50.4515717,38.626931 50.4515717,36.6048463 L50.4515717,13.9708859 C50.4515717,11.9488787 48.7480225,10.2528968 46.7169006,10.2528968 L40.6888316,10.2528968 C39.3129329,10.2528968 37.8714263,9.27451117 37.4782457,7.90470937 L35.9057567,3.20833459 C35.8403044,2.94746793 35.4471238,2.68652378 35.1850812,2.68652378 L17.9529211,2.68652378 C17.6908007,2.68652378 17.2976979,2.94746793 17.2321678,3.20833459 L15.6596789,7.96994541 C15.2009681,9.27451117 13.8250695,10.3181328 12.449093,10.3181328 L6.35564949,10.3181328 L6.35564949,10.2528968 Z M46.7169006,42.9318895 L6.35564949,42.9318895 C2.883021,42.9318895 7.78267349e-06,40.0618914 7.78267349e-06,36.6048463 L7.78267349e-06,13.9708859 C7.78267349e-06,10.5138409 2.883021,7.6438427 6.35564949,7.6438427 L12.3835628,7.6438427 C12.6456833,7.6438427 13.038786,7.38289856 13.1043162,7.12203189 L14.676883,2.42565712 C15.1355159,1.12109135 16.5114145,0.0774697297 17.887391,0.0774697297 L35.054021,0.0774697297 C36.4299975,0.0774697297 37.8714263,1.05585532 38.2646069,2.42565712 L39.8370959,7.12203189 C39.902626,7.38289856 40.2958066,7.6438427 40.5578492,7.6438427 L46.5858404,7.6438427 C50.0584689,7.6438427 52.9414043,10.5138409 52.9414043,13.9708859 L52.9414043,36.6048463 C53.0724645,40.1271274 50.1895291,42.9318895 46.7169006,42.9318895 L46.7169006,42.9318895 Z" id="Fill-1"></path>
                    <path d="M26.5344305,13.4167593 C20.6538432,13.4167593 15.825551,18.1617899 15.825551,24.0775827 C15.825551,29.9933755 20.6538432,34.6767341 26.5344305,34.6767341 C32.4150957,34.6767341 37.2433101,29.9317809 37.2433101,24.0159881 C37.2433101,18.1001178 32.4150957,13.4167593 26.5344305,13.4167593 M26.5344305,37.14168 C19.2919533,37.14168 13.3495715,31.2874818 13.3495715,24.0159881 C13.3495715,16.8060115 19.2300811,10.8902187 26.5344305,10.8902187 C33.83878,10.8902187 39.6574173,16.8060115 39.6574173,24.0159881 C39.6574173,31.2874818 33.77683,37.14168 26.5344305,37.14168" id="Fill-4"></path>
                    <path d="M44.9477435,12.0140683 C42.9165438,12.0140683 41.2130724,13.7099728 41.2130724,15.7320575 C41.2130724,17.7540647 42.9165438,19.4500467 44.9477435,19.4500467 C46.9789432,19.4500467 48.6824924,17.7541422 48.6824924,15.7320575 C48.6824924,13.7099728 46.9789432,12.0140683 44.9477435,12.0140683 M44.9477435,13.9709169 C45.9306172,13.9709169 46.7168228,14.7535944 46.7168228,15.7320575 C46.7168228,16.7104431 45.9306172,17.493198 44.9477435,17.493198 C43.9649476,17.493198 43.178742,16.7104431 43.178742,15.7320575 C43.178742,14.7535944 43.9649476,13.9709169 44.9477435,13.9709169" id="Fill-6"></path>
                </g>
            </g>
        </g>
    </g>
</svg>