<?xml version="1.0" encoding="UTF-8"?>
<svg width="92px" height="44px" viewBox="0 0 92 44" version="1.1" xmlns="http://www.w3.org/2000/svg" xmlns:xlink="http://www.w3.org/1999/xlink">
    <!-- Generator: Sketch 40.3 (33839) - http://www.bohemiancoding.com/sketch -->
    <title>Page 1</title>
    <desc>Created with Sketch.</desc>
    <defs></defs>
    <g id="Page-1" stroke="none" stroke-width="1" fill="none" fill-rule="evenodd">
        <g id="Profile_PastEvents" transform="translate(-510.000000, -609.000000)" stroke-width="3" stroke="#FFFFFF">
            <g id="Group-4">
                <g id="Group-31-Copy-2" transform="translate(512.000000, 611.000000)">
                    <g id="Page-1">
                        <path d="M33.4532409,24.1355599 L21.4634452,4.55655064" id="Stroke-1"></path>
                        <path d="M26.3786947,28.4524825 L14.3878093,8.87428909" id="Stroke-2"></path>
                        <path d="M19.3029498,32.7705745 L7.31342663,13.1926531" id="Stroke-3"></path>
                        <g id="Group-10" transform="translate(0.000000, 0.177049)">
                            <path d="M12.227995,36.9116447 L0.238199381,17.3326354" id="Stroke-4"></path>
                            <polygon id="Stroke-6" points="12.227995 36.9116447 0.238199381 17.3326354 28.5393263 0.0612464459 40.5293944 19.6410716"></polygon>
                            <path d="M28.5392446,0.0614912141 L53.3813994,40.6293747" id="Stroke-8"></path>
                        </g>
                        <path d="M4.2790613,24.1083362 L32.5804607,6.83721925" id="Stroke-11"></path>
                        <path d="M8.32025015,30.7067977 L36.6216495,13.4370405" id="Stroke-12"></path>
                        <path d="M54.6442675,24.1355599 L66.634608,4.55600671" id="Stroke-13"></path>
                        <path d="M61.719631,28.4524825 L73.7096991,8.87401713" id="Stroke-14"></path>
                        <path d="M68.7945585,32.7699218 L80.7846266,13.1914564" id="Stroke-15"></path>
                        <g id="Group-22" transform="translate(34.600619, 0.177049)">
                            <path d="M41.2699567,36.9108288 L53.2594799,17.3315475" id="Stroke-16"></path>
                            <polygon id="Stroke-18" points="41.2699567 36.9108288 53.2594799 17.3315475 24.9580805 0.0607025166 12.9685573 19.6407996"></polygon>
                            <path d="M24.9580533,0.0608113024 L0.116170898,40.6292387" id="Stroke-20"></path>
                        </g>
                        <path d="M83.8192644,24.1078195 L55.517865,6.83724645" id="Stroke-23"></path>
                        <path d="M79.778348,30.706009 L51.4769486,13.4362518" id="Stroke-24"></path>
                    </g>
                </g>
            </g>
        </g>
    </g>
</svg>