<?xml version="1.0" encoding="UTF-8"?>
<svg width="95px" height="43px" viewBox="0 0 95 43" version="1.1" xmlns="http://www.w3.org/2000/svg" xmlns:xlink="http://www.w3.org/1999/xlink">
    <!-- Generator: Sketch 40.3 (33839) - http://www.bohemiancoding.com/sketch -->
    <title>Page 1</title>
    <desc>Created with Sketch.</desc>
    <defs></defs>
    <g id="Page-1" stroke="none" stroke-width="1" fill="none" fill-rule="evenodd">
        <g id="Profile_VIP_pass" transform="translate(-398.000000, -225.000000)" stroke-width="3" stroke="#FFFFFF">
            <g id="Group-30-Copy" transform="translate(389.000000, 227.000000)">
                <g id="Page-1" transform="translate(11.000000, 0.000000)">
                    <polyline id="Stroke-1" points="15.4855042 26.359033 27.0799408 26.359033 15.4855042 15.1128791 0.10208169 39.7572747"></polyline>
                    <path d="M26.793693,3.50747253 C26.793693,5.20153846 25.4301296,6.57472527 23.7469606,6.57472527 C22.0646648,6.57472527 20.7006648,5.20153846 20.7006648,3.50747253 C20.7006648,1.81340659 22.0646648,0.44021978 23.7469606,0.44021978 C25.4301296,0.44021978 26.793693,1.81340659 26.793693,3.50747253 L26.793693,3.50747253 Z" id="Stroke-3"></path>
                    <polyline id="Stroke-5" points="7.21959437 13.3336264 12.7642282 4.49274725 24.430707 15.7393407 31.7532563 15.7393407"></polyline>
                    <polyline id="Stroke-7" points="46.3784887 26.359033 57.9724887 26.359033 46.3784887 15.1124396 30.9946296 39.7568352"></polyline>
                    <path d="M57.6862408,3.50703297 C57.6862408,5.2010989 56.3226775,6.57472527 54.6395085,6.57472527 C52.9572127,6.57472527 51.5932127,5.2010989 51.5932127,3.50703297 C51.5932127,1.81296703 52.9572127,0.439340659 54.6395085,0.439340659 C56.3226775,0.439340659 57.6862408,1.81296703 57.6862408,3.50703297 L57.6862408,3.50703297 Z" id="Stroke-9"></path>
                    <polyline id="Stroke-11" points="38.1121423 13.3334066 43.6567761 4.49252747 55.3232549 15.7386813 62.6458042 15.7386813"></polyline>
                    <polyline id="Stroke-13" points="76.4903169 26.3588132 88.0843169 26.3588132 76.4903169 15.1122198 61.1064577 39.7570549"></polyline>
                    <path d="M87.7985056,3.50703297 C87.7985056,5.2010989 86.4345056,6.57428571 84.7513366,6.57428571 C83.0690408,6.57428571 81.7050408,5.2010989 81.7050408,3.50703297 C81.7050408,1.81296703 83.0690408,0.439340659 84.7513366,0.439340659 C86.4345056,0.439340659 87.7985056,1.81296703 87.7985056,3.50703297 L87.7985056,3.50703297 Z" id="Stroke-15"></path>
                    <polyline id="Stroke-17" points="68.2239704 13.3331868 73.7686042 4.49274725 85.4350831 15.7389011 92.7576324 15.7389011"></polyline>
                </g>
            </g>
        </g>
    </g>
</svg>