<?xml version="1.0" encoding="utf-8"?>
<!-- Generator: Adobe Illustrator 24.2.1, SVG Export Plug-In . SVG Version: 6.00 Build 0)  -->
<svg version="1.1" id="Layer_1" xmlns="http://www.w3.org/2000/svg" xmlns:xlink="http://www.w3.org/1999/xlink" x="0px" y="0px"
	 viewBox="0 0 500 500" style="enable-background:new 0 0 500 500;" xml:space="preserve">
<style type="text/css">
	.st0{fill:#FFFFFF;}
	.st1{fill:#FF5350;}
	.st2{fill:#FDD000;}
	.st3{fill:#1E1E1E;}
</style>
<g>
	<path class="st0" d="M390.63,346.89c-7.26,0-12.94,5.75-12.94,13.04c0,7.28,5.68,13.04,12.94,13.04c7.26,0,12.94-5.75,12.94-13.04
		C403.57,352.64,397.9,346.89,390.63,346.89z"/>
	<path class="st0" d="M147.67,346.89c-7.26,0-12.94,5.75-12.94,13.04c0,7.28,5.68,13.04,12.94,13.04c7.26,0,12.94-5.75,12.94-13.04
		C160.61,352.64,154.93,346.89,147.67,346.89z"/>
	<path class="st0" d="M185.02,346.89c-7.26,0-12.94,5.75-12.94,13.04c0,7.28,5.68,13.04,12.94,13.04c7.26,0,12.88-5.75,12.88-13.04
		C197.9,352.64,192.28,346.89,185.02,346.89z"/>
	<path class="st0" d="M250.3,8C117.36,8,9.58,115.77,9.58,248.72S117.36,489.44,250.3,489.44s240.72-107.77,240.72-240.72
		S383.25,8,250.3,8z M231.6,129.4l31.36-15.05v99.22h56.35v28.5H231.6V129.4z M177.34,155.92l31.36-15.06v123.86h58.89v28.5h-90.25
		V155.92z M113.37,375.89c-6.1,0-10.13-2.88-11.6-6.79l2.62-1.53c1.1,3.3,4.39,5.39,8.97,5.39c4.27,0,7.87-1.9,7.87-5.75
		c0-8.32-18.49-3.55-18.49-14.57c0-4.83,4.15-8.69,10.38-8.69c4.94,0,8.73,2.39,10.38,6.12l-2.56,1.47
		c-1.28-3.18-4.46-4.65-7.81-4.65c-3.97,0-7.32,2.08-7.32,5.75c0,8.2,18.49,3.37,18.49,14.57
		C124.29,372.22,119.9,375.89,113.37,375.89z M147.85,375.89c-5.92,0-10.62-3.06-13.12-7.77v19.34h-3.05v-42.84h3.05v7.1
		c2.5-4.71,7.2-7.77,13.12-7.77c8.73,0,15.81,6.92,15.81,15.97C163.66,368.98,156.58,375.89,147.85,375.89z M185.02,375.89
		c-8.91,0-16.05-6.92-16.05-15.97c0-9.06,7.14-15.97,16.05-15.97c8.85,0,15.99,6.92,15.99,15.97
		C201.01,368.98,193.87,375.89,185.02,375.89z M221.58,347.13c-5.25,0-10.19,3.24-10.19,11.08v17.01h-3.05v-30.6h3.05v6
		c2.08-4.83,6.04-6.43,10.19-6.43V347.13z M243.79,347.62h-9.09v27.7h-3.11v-27.7h-6.71v-3h6.71v-7.65l3.11-0.92v8.57h9.09V347.62z
		 M258.93,375.89c-6.1,0-10.13-2.88-11.6-6.79l2.62-1.53c1.1,3.3,4.39,5.39,8.97,5.39c4.27,0,7.87-1.9,7.87-5.75
		c0-8.32-18.49-3.55-18.49-14.57c0-4.83,4.15-8.69,10.38-8.69c4.94,0,8.73,2.39,10.38,6.12l-2.56,1.47
		c-1.28-3.18-4.46-4.65-7.81-4.65c-3.97,0-7.32,2.08-7.32,5.75c0,8.2,18.49,3.37,18.49,14.57
		C269.85,372.22,265.46,375.89,258.93,375.89z M294.81,268.98c2.89-2.81,6.25-4.21,10.08-4.21c3.96,0,7.35,1.4,10.17,4.21
		s4.24,6.17,4.24,10.1c0,1.8-0.47,3.82-1.44,6.06c-0.96,2.24-2.65,4.15-5.08,5.73c-2.35,1.56-5.1,2.38-7.9,2.37
		c-3.85,0-7.21-1.4-10.08-4.21c-2.89-2.81-4.32-6.12-4.32-9.94C290.49,275.15,291.93,271.79,294.81,268.98z M307.51,375.89
		c-9.22,0-16.05-6.92-16.05-15.97c0-9.06,6.84-15.97,16.05-15.97c5.98,0,11.11,3.06,13.3,7.83l-2.5,1.47
		c-1.77-3.86-5.92-6.36-10.8-6.36c-7.38,0-12.94,5.75-12.94,13.04c0,7.28,5.55,13.04,12.94,13.04c4.94,0,8.97-2.57,10.99-6.36
		l2.56,1.53C318.62,372.83,313.49,375.89,307.51,375.89z M330.82,375.22h-3.05v-44.68h3.05V375.22z M365.24,375.22h-3.05v-5.81
		c-2.32,4.53-6.23,6.49-10.92,6.49c-7.26,0-11.84-4.83-11.84-12.24v-19.03h3.11v19.03c0,5.63,3.23,9.3,8.97,9.3
		c5.98,0,10.68-3.92,10.68-12.18v-16.16h3.05V375.22z M390.82,375.89c-5.92,0-10.62-3.06-13.12-7.77v7.1h-3.05v-42.84h3.05v19.34
		c2.5-4.71,7.2-7.77,13.12-7.77c8.73,0,15.81,6.92,15.81,15.97C406.62,368.98,399.54,375.89,390.82,375.89z"/>
</g>
</svg>
