<?xml version="1.0" encoding="UTF-8" standalone="no"?>
<svg width="760px" height="1352px" viewBox="0 0 760 1352" version="1.1" xmlns="http://www.w3.org/2000/svg" xmlns:xlink="http://www.w3.org/1999/xlink">
    <!-- Generator: Sketch 39.1 (31720) - http://www.bohemiancoding.com/sketch -->
    <title>vs-color-circle-1</title>
    <desc>Created with Sketch.</desc>
    <defs>
        <linearGradient x1="88.9798438%" y1="-66.2886311%" x2="11.0201851%" y2="266.288399%" id="linearGradient-1">
            <stop stop-color="#DBDBDB" offset="0%"></stop>
            <stop stop-color="#F9F9F9" offset="100%"></stop>
        </linearGradient>
        <linearGradient x1="88.512291%" y1="-15.0091769%" x2="10.5452508%" y2="205.486944%" id="linearGradient-2">
            <stop stop-color="#DBDBDB" offset="0%"></stop>
            <stop stop-color="#F9F9F9" offset="100%"></stop>
        </linearGradient>
        <linearGradient x1="87.9452897%" y1="0.535510689%" x2="9.98563887%" y2="182.392102%" id="linearGradient-3">
            <stop stop-color="#DBDBDB" offset="0%"></stop>
            <stop stop-color="#F9F9F9" offset="100%"></stop>
        </linearGradient>
        <linearGradient x1="87.4714397%" y1="8.31935065%" x2="9.5117935%" y2="169.604848%" id="linearGradient-4">
            <stop stop-color="#DBDBDB" offset="0%"></stop>
            <stop stop-color="#F9F9F9" offset="100%"></stop>
        </linearGradient>
        <linearGradient x1="87.0755647%" y1="13.1574396%" x2="9.1159249%" y2="161.252264%" id="linearGradient-5">
            <stop stop-color="#DBDBDB" offset="0%"></stop>
            <stop stop-color="#F9F9F9" offset="100%"></stop>
        </linearGradient>
        <linearGradient x1="86.7435998%" y1="16.4397306%" x2="8.78395144%" y2="155.368659%" id="linearGradient-6">
            <stop stop-color="#DBDBDB" offset="0%"></stop>
            <stop stop-color="#F9F9F9" offset="100%"></stop>
        </linearGradient>
        <linearGradient x1="86.493225%" y1="18.7801479%" x2="8.50363078%" y2="150.950728%" id="linearGradient-7">
            <stop stop-color="#DBDBDB" offset="0%"></stop>
            <stop stop-color="#F9F9F9" offset="100%"></stop>
        </linearGradient>
        <linearGradient x1="87.9375657%" y1="15.780153%" x2="8.76804949%" y2="147.531324%" id="linearGradient-8">
            <stop stop-color="#DBDBDB" offset="0%"></stop>
            <stop stop-color="#F9F9F9" offset="100%"></stop>
        </linearGradient>
        <linearGradient x1="88.376837%" y1="8.84196547%" x2="9.35171852%" y2="159.505551%" id="linearGradient-9">
            <stop stop-color="#DBDBDB" offset="0%"></stop>
            <stop stop-color="#F9F9F9" offset="100%"></stop>
        </linearGradient>
        <linearGradient x1="88.6885111%" y1="2.33483013%" x2="9.74322963%" y2="169.7426%" id="linearGradient-10">
            <stop stop-color="#DBDBDB" offset="0%"></stop>
            <stop stop-color="#F9F9F9" offset="100%"></stop>
        </linearGradient>
        <linearGradient x1="88.9123556%" y1="-4.07930142%" x2="10.0131333%" y2="179.08522%" id="linearGradient-11">
            <stop stop-color="#DBDBDB" offset="0%"></stop>
            <stop stop-color="#F9F9F9" offset="100%"></stop>
        </linearGradient>
        <linearGradient x1="89.0924296%" y1="-10.5038811%" x2="10.1993481%" y2="187.503322%" id="linearGradient-12">
            <stop stop-color="#DBDBDB" offset="0%"></stop>
            <stop stop-color="#F9F9F9" offset="100%"></stop>
        </linearGradient>
        <linearGradient x1="95.5831657%" y1="-20.0394429%" x2="0.440670391%" y2="101.999371%" id="linearGradient-13">
            <stop stop-color="#DBDBDB" offset="0%"></stop>
            <stop stop-color="#F9F9F9" offset="100%"></stop>
        </linearGradient>
        <linearGradient x1="96.5723747%" y1="-12.2178225%" x2="-3.25832419%" y2="88.3856449%" id="linearGradient-14">
            <stop stop-color="#DBDBDB" offset="0%"></stop>
            <stop stop-color="#F9F9F9" offset="100%"></stop>
        </linearGradient>
        <linearGradient x1="83.0402707%" y1="8.32503254%" x2="19.7570593%" y2="88.1465944%" id="linearGradient-15">
            <stop stop-color="#DBDBDB" offset="0%"></stop>
            <stop stop-color="#F9F9F9" offset="100%"></stop>
        </linearGradient>
        <linearGradient x1="84.1837838%" y1="-34.0625%" x2="15.8486486%" y2="133.98125%" id="linearGradient-16">
            <stop stop-color="#DBDBDB" offset="0%"></stop>
            <stop stop-color="#F9F9F9" offset="100%"></stop>
        </linearGradient>
        <linearGradient x1="83.64%" y1="-22.6%" x2="13.54%" y2="107.85%" id="linearGradient-17">
            <stop stop-color="#DBDBDB" offset="0%"></stop>
            <stop stop-color="#F9F9F9" offset="100%"></stop>
        </linearGradient>
        <linearGradient x1="83.1396893%" y1="17.0833113%" x2="22.1150071%" y2="77.6974274%" id="linearGradient-18">
            <stop stop-color="#DBDBDB" offset="0%"></stop>
            <stop stop-color="#F9F9F9" offset="100%"></stop>
        </linearGradient>
        <linearGradient x1="88.176996%" y1="15.6247657%" x2="23.2592095%" y2="74.0779116%" id="linearGradient-19">
            <stop stop-color="#DBDBDB" offset="0%"></stop>
            <stop stop-color="#F9F9F9" offset="100%"></stop>
        </linearGradient>
        <linearGradient x1="95.2922813%" y1="-15.1817647%" x2="-6.84168096%" y2="77.9361765%" id="linearGradient-20">
            <stop stop-color="#DBDBDB" offset="0%"></stop>
            <stop stop-color="#F9F9F9" offset="100%"></stop>
        </linearGradient>
    </defs>
    <g id="Page-1" stroke="none" stroke-width="1" fill="none" fill-rule="evenodd">
        <g id="vs-color-circle-1" transform="translate(380.000000, 676.000000) rotate(-90.000000) translate(-380.000000, -676.000000) translate(-296.000000, 296.000000)">
            <g id="Group">
                <g id="Shape">
                    <path d="M671,716.6 C617.6,716.6 566,728 517.9,750.4 L498,759.7 L575,759.7 L575.7,759.5 C606.5,750.3 638.5,745.7 670.9,745.7 C703.3,745.7 735.3,750.3 766.1,759.5 L766.8,759.7 L843.8,759.7 L823.9,750.4 C776,728 724.5,716.6 671,716.6 L671,716.6 Z" fill="url(#linearGradient-1)"></path>
                    <path d="M817.4,679.8 C770.5,662.7 721.3,654 671,654 C620.7,654 571.5,662.7 524.7,679.8 C479.5,696.4 437.6,720.3 400.3,751.1 L389.9,759.7 L436.6,759.7 L437.9,758.8 C506,709.2 586.6,683 671,683 C755.4,683 836,709.2 904.1,758.7 L905.4,759.6 L952.1,759.6 L941.7,751 C904.5,720.3 862.6,696.4 817.4,679.8 L817.4,679.8 Z" fill="url(#linearGradient-2)"></path>
                    <path d="M872.4,634.6 C808.9,605.9 741.2,591.3 671.1,591.3 C601,591.3 533.2,605.9 469.8,634.6 C408.5,662.3 354.4,701.7 309.1,751.6 L301.7,759.7 L341.4,759.7 L342.8,758.2 C385.1,715.1 434.6,681.1 490,657.4 C547.3,632.8 608.2,620.3 671.1,620.3 C734,620.3 794.8,632.8 852.2,657.4 C907.6,681.1 957.1,715.1 999.4,758.2 L1000.8,759.7 L1040.5,759.7 L1033.1,751.6 C987.7,701.7 933.7,662.3 872.4,634.6 L872.4,634.6 Z" fill="url(#linearGradient-3)"></path>
                    <path d="M923.3,589.6 C885.1,569.9 844.6,554.8 802.9,544.6 C760,534 715.6,528.7 671,528.7 C626.4,528.7 582.1,534 539.1,544.6 C497.4,554.8 456.9,570 418.7,589.6 C343.8,628.1 277.6,684.3 227.4,752 L221.7,759.7 L258.2,759.7 L259.7,757.8 C307.5,696.9 369.4,646.5 438.6,612.1 C474,594.5 511.4,581 549.8,571.8 C589.3,562.4 630.1,557.6 671.1,557.6 C712.1,557.6 752.9,562.4 792.4,571.8 C830.8,580.9 868.2,594.5 903.6,612.1 C972.8,646.5 1034.7,696.9 1082.5,757.8 L1084,759.7 L1120.5,759.7 L1114.8,752 C1064.4,684.3 998.2,628.1 923.3,589.6 L923.3,589.6 Z" fill="url(#linearGradient-4)"></path>
                    <path d="M972.3,544.7 C927.3,519.4 879.1,499.8 829.3,486.6 C777.9,472.9 724.7,466 671,466 C617.4,466 564.1,472.9 512.7,486.6 C462.9,499.8 414.7,519.4 369.7,544.7 C281,594.6 205.4,666.4 151,752.3 L146.3,759.7 L181,759.7 L182.4,757.5 C234.7,678.5 306.3,612.6 389.4,567 C431.7,543.8 476.7,525.9 523.3,513.8 C571.3,501.3 621,495 671,495 C721,495 770.7,501.3 818.7,513.8 C865.3,525.9 910.3,543.8 952.6,567 C1035.7,612.6 1107.3,678.5 1159.6,757.5 L1161,759.7 L1195.6,759.7 L1190.9,752.3 C1136.7,666.4 1061,594.6 972.3,544.7 L972.3,544.7 Z" fill="url(#linearGradient-5)"></path>
                    <path d="M1020.1,499.9 C968.5,468.9 913,444.9 855.2,428.6 C795.5,411.8 733.6,403.3 671.1,403.3 C608.6,403.3 546.6,411.8 486.9,428.6 C429.1,444.9 373.6,468.9 322,499.9 C219.8,561.3 135.4,648.7 77.8,752.5 L73.8,759.7 L107.2,759.7 L108.6,757.3 C164.5,660.4 245,579.1 341.6,522.1 C390.5,493.3 442.9,471 497.5,455.9 C553.8,440.3 612.2,432.4 671.1,432.4 C730,432.4 788.4,440.3 844.7,455.9 C899.2,471 951.7,493.3 1000.6,522.1 C1097.2,579.1 1177.7,660.4 1233.5,757.3 L1234.9,759.7 L1268.3,759.7 L1264.3,752.5 C1206.7,648.7 1122.3,561.3 1020.1,499.9 L1020.1,499.9 Z" fill="url(#linearGradient-6)"></path>
                    <path d="M1067.2,455.3 C948.8,380.3 811.8,340.7 671.1,340.7 C530.4,340.7 393.4,380.3 275,455.3 C159.6,528.2 66.9,631.1 6.7,752.7 L3.2,759.7 L35.8,759.7 L37.2,757 C95.8,642.5 184.8,545.7 294.6,477.3 C407.4,406.9 537.6,369.8 671.1,369.8 C804.6,369.8 934.8,407 1047.6,477.3 C1157.3,545.7 1246.3,642.5 1305,757.1 L1306.4,759.8 L1339,759.8 L1335.5,752.8 C1275.2,631.1 1182.5,528.2 1067.2,455.3 L1067.2,455.3 Z" fill="url(#linearGradient-7)"></path>
                    <path d="M1064.4,380.6 C1005.6,347.6 942.7,322.1 877.6,304.8 C810.6,287 741.1,278 671,278 C602.6,278 534.6,286.6 468.9,303.6 C405.2,320.1 343.5,344.5 285.7,376.1 C172,438.3 73.8,528.1 1.8,635.8 L1,637 L1,691.7 L10.1,676.9 C78,566.2 173.6,473.5 286.7,408.9 C344,376.1 405.3,350.8 468.9,333.7 C534.5,316 602.5,307.1 671,307.1 C741.2,307.1 810.8,316.5 877.9,335 C942.9,353 1005.5,379.5 1063.7,413.8 C1178.9,481.6 1275.1,578.3 1341.8,693.6 L1350.9,709.3 L1350.9,652.3 L1350.1,651.1 C1279.2,539.2 1180.3,445.6 1064.4,380.6 L1064.4,380.6 Z" fill="url(#linearGradient-8)"></path>
                    <path d="M1215.6,407.4 C1165.7,367.2 1111.4,332.5 1054.1,304.2 C995.7,275.4 934,253.3 870.8,238.4 C805.7,223.1 738.5,215.3 671.1,215.3 C605,215.3 539.2,222.8 475.4,237.5 C413.3,251.8 352.8,273.1 295.3,300.7 C238.9,327.8 185.3,361.2 135.9,399.9 C86.9,438.4 41.9,482.2 2.2,530.2 L1.1,531.5 L1.1,578.4 L9.8,567.2 C48,518.2 91.8,473.4 140,433.9 C188.4,394.2 241.3,360 297.2,332.1 C354.1,303.7 414.3,281.9 476,267.1 C539.6,251.9 605.2,244.3 671.1,244.3 C738.4,244.3 805.5,252.3 870.3,268.1 C933.3,283.5 994.6,306.2 1052.4,335.8 C1109.2,364.8 1162.8,400.5 1211.6,441.7 C1260.2,482.7 1304.2,529.3 1342.3,580.1 L1351.1,591.8 L1351.1,543.7 L1350,542.4 C1310.4,492.9 1265.2,447.4 1215.6,407.4 L1215.6,407.4 Z" fill="url(#linearGradient-9)"></path>
                    <path d="M1209.8,324.3 C1158.9,288.1 1104.1,257 1047.2,231.8 C989.1,206.1 928.2,186.4 866.2,173.2 C802.4,159.6 736.8,152.7 671,152.7 C606.6,152.7 542.2,159.3 479.6,172.4 C418.7,185.1 358.8,204.1 301.7,228.9 C245.6,253.2 191.6,283.2 141.3,318.1 C91.4,352.6 44.6,392.3 2.4,435.9 L1,437.3 L1,479.9 L9.5,470.7 C50.6,426.3 96.4,385.9 145.5,350.6 C195.1,315 248.4,284.4 303.9,259.6 C360.5,234.3 419.9,214.9 480.5,201.9 C542.8,188.6 606.9,181.8 671,181.8 C736.5,181.8 801.8,188.9 865.2,202.8 C926.9,216.4 987.4,236.5 1044.9,262.8 C1101.4,288.6 1155.4,320.3 1205.5,357.3 C1255.2,393.9 1301.3,435.8 1342.5,481.7 L1351,491.2 L1351,447.8 L1349.7,446.4 C1307.3,401.2 1260.2,360.2 1209.8,324.3 L1209.8,324.3 Z" fill="url(#linearGradient-10)"></path>
                    <path d="M671,90.1 C545.2,90.1 422.6,113.3 306.5,159.1 C194.4,203.3 92.1,266.9 2.6,348.3 L1,349.7 L1,389.6 L9.2,381.8 C52.4,341.1 99.6,304.2 149.4,272.1 C199.8,239.7 253.4,211.9 308.8,189.4 C424,142.8 545.9,119.1 671,119.1 C798.6,119.1 922.6,143.6 1039.6,192.1 C1095.9,215.4 1150.2,244.2 1201.2,277.8 C1251.7,311 1299.3,349.2 1342.7,391.3 L1351,399.3 L1351,359 L1349.5,357.6 C1164.8,185 923.9,90.1 671,90.1 L671,90.1 Z" fill="url(#linearGradient-11)"></path>
                    <path d="M1349.3,272.9 C1254.7,193.7 1148.3,132.4 1033.1,90.6 C917.6,48.6 795.7,27.4 671,27.4 C548.5,27.4 428.7,47.9 314.9,88.4 C201.6,128.7 96.5,188 2.8,264.6 L1,266 L1,304.7 L9,297.9 C99.7,221.5 201.8,161.9 312.5,120.7 C427.2,78.1 547.8,56.5 671,56.5 C796.6,56.5 919.3,78.9 1035.7,123.1 C1148.2,165.8 1251.5,227.5 1342.9,306.4 L1351,313.4 L1351,274.3 L1349.3,272.9 L1349.3,272.9 Z" fill="url(#linearGradient-12)"></path>
                    <path d="M233.1,84.6 C312.5,49.9 396.3,24.8 482.2,9.9 L538,0.3 L388.7,0.3 L388.1,0.5 C248.5,36.5 118.9,98.5 3,184.8 L1,186.3 L1,222.9 L8.9,216.9 C78.1,163.9 153.5,119.4 233.1,84.6 L233.1,84.6 Z" fill="url(#linearGradient-13)"></path>
                    <path d="M250.2,9.7 L274.3,0.3 L196.7,0.3 L195.8,0.7 C128.6,30.1 63.8,66 3.1,107.6 L1,109 L1,144.5 L8.7,139.1 C83.8,86.4 165,42.9 250.2,9.7 L250.2,9.7 Z" fill="url(#linearGradient-14)"></path>
                    <path d="M1114.7,87.1 C1195.9,123.2 1272.8,169.4 1343.1,224.5 L1351,230.7 L1351,193.8 L1349.1,192.3 C1290.3,147.6 1227,108.6 1160.8,76.4 C1094.8,44.4 1025.2,18.8 954,0.4 L953.4,0.2 L804.2,0.2 L860,9.8 C947.9,25.1 1033.6,51.1 1114.7,87.1 L1114.7,87.1 Z" fill="url(#linearGradient-15)"></path>
                    <path d="M910.7,10 L910.7,10 L918,11.6 L918.1,11.6 L910.7,10 L910.7,10 Z" fill="url(#linearGradient-16)"></path>
                    <path d="M915.5,11.1 C914.6,10.9 913.7,10.7 912.9,10.5 C912.6,10.4 912.3,10.4 912,10.3 C912.3,10.4 912.6,10.4 912.9,10.5 C913.7,10.7 914.6,10.9 915.5,11.1 L915.5,11.1 Z" fill="url(#linearGradient-17)"></path>
                    <path d="M1343.3,146.2 L1351,151.8 L1351,115.9 L1348.9,114.4 C1285.3,69.9 1217.1,31.6 1146.3,0.6 L1145.4,0.2 L1067.8,0.2 L1091.9,9.6 C1180.9,44.4 1265.5,90.3 1343.3,146.2 L1343.3,146.2 Z" fill="url(#linearGradient-18)"></path>
                    <path d="M1343.5,70 L1351.1,75 L1351.1,40.1 L1348.9,38.7 C1328.6,25.5 1307.7,12.8 1286.8,0.9 L1285.7,0.3 L1224.6,0.3 L1241.8,9.4 C1276.5,27.8 1310.7,48.2 1343.5,70 L1343.5,70 Z" fill="url(#linearGradient-19)"></path>
                    <path d="M100.3,9.4 L117.5,0.3 L56.4,0.3 L55.3,0.9 C37.8,10.8 20.3,21.4 3.2,32.2 L0.9,33.6 L0.9,68.3 L8.5,63.4 C38.2,44.2 69.1,26 100.3,9.4 L100.3,9.4 Z" fill="url(#linearGradient-20)"></path>
                </g>
            </g>
        </g>
    </g>
</svg>