<?xml version="1.0" encoding="UTF-8" standalone="no"?>
<svg width="1920px" height="1080px" viewBox="0 0 1920 1080" version="1.1" xmlns="http://www.w3.org/2000/svg" xmlns:xlink="http://www.w3.org/1999/xlink">
    <!-- Generator: Sketch 39.1 (31720) - http://www.bohemiancoding.com/sketch -->
    <title>Artboard</title>
    <desc>Created with Sketch.</desc>
    <defs>
        <polyline id="path-1" points="0 0 0 1080 1920 1080 1920 0"></polyline>
        <path d="M1397.911,0 C1380.062,8.142 1363.92,17.126 1347.949,26.014 C1299.123,53.176 1253.003,78.83 1158.47,78.83 C1063.935,78.83 1017.818,53.176 969,26.014 C953.027,17.126 936.882,8.142 919.033,0 L604.197,0 C586.347,8.142 570.202,17.126 554.232,26.014 C505.395,53.176 459.275,78.83 364.72,78.83 C270.169,78.83 224.05,53.176 175.224,26.014 C159.249,17.126 143.103,8.142 125.253,0 L0,0 L0,24.914 C73.532,30.045 114.38,52.766 157.32,76.656 C208.202,104.963 260.816,134.239 364.72,134.239 C468.616,134.239 521.242,104.963 572.122,76.656 C620.948,49.492 667.078,23.838 761.621,23.838 C856.165,23.838 902.273,49.492 951.099,76.656 C1001.97,104.963 1054.583,134.239 1158.471,134.239 C1262.356,134.239 1314.971,104.963 1365.839,76.656 C1414.664,49.492 1460.785,23.838 1555.319,23.838 C1649.853,23.838 1695.971,49.492 1744.787,76.656 C1790.13,101.882 1836.836,127.878 1920,133.237 L1920,77.754 C1846.468,72.623 1805.628,49.901 1762.689,26.014 C1746.717,17.126 1730.574,8.142 1712.725,3.55271368e-15 L1397.911,3.55271368e-15 L1397.911,0 Z" id="path-3"></path>
        <linearGradient x1="0%" y1="49.6969342%" x2="100%" y2="49.6969342%" id="linearGradient-5">
            <stop stop-color="#FFFFFF" stop-opacity="0" offset="0%"></stop>
            <stop stop-color="#FFFFFF" offset="100%"></stop>
        </linearGradient>
        <polyline id="path-6" points="0 0 0 1080 1920 1080 1920 0"></polyline>
        <path d="M1347.949,57.75 C1299.123,84.914 1253.003,110.567 1158.47,110.567 C1063.935,110.567 1017.818,84.914 969,57.75 C918.121,29.442 865.515,0.167 761.62,0.167 C657.724,0.167 605.099,29.442 554.231,57.75 C505.394,84.914 459.274,110.567 364.719,110.567 C270.168,110.567 224.049,84.914 175.223,57.75 C129.879,32.523 83.165,6.528 0,1.169 L0,56.638 C73.532,61.772 114.38,84.503 157.32,108.392 C208.202,136.699 260.816,165.962 364.72,165.962 C468.616,165.962 521.242,136.699 572.122,108.392 C620.948,81.228 667.078,55.562 761.621,55.562 C856.165,55.562 902.273,81.228 951.099,108.392 C1001.97,136.699 1054.583,165.962 1158.471,165.962 C1262.356,165.962 1314.971,136.699 1365.839,108.392 C1414.664,81.228 1460.785,55.562 1555.319,55.562 C1649.853,55.562 1695.971,81.228 1744.787,108.392 C1790.13,133.618 1836.836,159.604 1920,164.961 L1920,109.491 C1846.468,104.361 1805.628,81.639 1762.689,57.75 C1711.821,29.442 1659.204,0.167 1555.319,0.167 C1451.432,0.167 1398.817,29.442 1347.949,57.75" id="path-8"></path>
        <polyline id="path-10" points="0 0 0 1080 1920 1080 1920 0"></polyline>
        <path d="M1347.949,58.476 C1299.123,85.638 1253.003,111.304 1158.47,111.304 C1063.935,111.304 1017.818,85.638 969,58.476 C918.121,30.166 865.515,0.904 761.62,0.904 C657.724,0.904 605.099,30.166 554.231,58.476 C505.394,85.638 459.274,111.304 364.719,111.304 C270.168,111.304 224.049,85.638 175.223,58.476 C129.879,33.247 83.165,7.262 0,1.905 L0,57.374 C73.532,62.505 114.38,85.228 157.32,109.129 C208.202,137.435 260.816,166.701 364.72,166.701 C468.616,166.701 521.242,137.435 572.122,109.129 C620.948,81.952 667.078,56.299 761.621,56.299 C856.165,56.299 902.273,81.952 951.099,109.129 C1001.97,137.435 1054.583,166.701 1158.471,166.701 C1262.356,166.701 1314.971,137.435 1365.839,109.129 C1414.664,81.952 1460.785,56.299 1555.319,56.299 C1649.853,56.299 1695.971,81.952 1744.787,109.129 C1790.13,134.355 1836.836,160.342 1920,165.699 L1920,110.227 C1846.468,105.094 1805.628,82.363 1762.689,58.476 C1711.821,30.166 1659.204,0.904 1555.319,0.904 C1451.432,0.904 1398.817,30.166 1347.949,58.476" id="path-12"></path>
        <polyline id="path-14" points="0 0 0 1080 1920 1080 1920 0"></polyline>
        <path d="M1347.949,58.212 C1299.123,85.374 1253.003,111.028 1158.47,111.028 C1063.935,111.028 1017.818,85.374 969,58.212 C918.121,29.904 865.515,0.628 761.62,0.628 C657.724,0.628 605.099,29.904 554.231,58.212 C505.394,85.374 459.274,111.028 364.719,111.028 C270.168,111.028 224.049,85.374 175.223,58.212 C129.879,32.985 83.165,6.989 0,1.63 L0,57.112 C73.532,62.243 114.38,84.965 157.32,108.853 C208.202,137.161 260.816,166.437 364.72,166.437 C468.616,166.437 521.242,137.161 572.122,108.853 C620.948,81.69 667.078,56.036 761.621,56.036 C856.165,56.036 902.273,81.69 951.099,108.853 C1001.97,137.161 1054.583,166.437 1158.471,166.437 C1262.356,166.437 1314.971,137.161 1365.839,108.853 C1414.664,81.69 1460.785,56.036 1555.319,56.036 C1649.853,56.036 1695.971,81.69 1744.787,108.853 C1790.13,134.08 1836.836,160.076 1920,165.435 L1920,109.952 C1846.468,104.821 1805.628,82.1 1762.689,58.212 C1711.821,29.904 1659.204,0.628 1555.319,0.628 C1451.432,0.628 1398.817,29.904 1347.949,58.212" id="path-16"></path>
        <polyline id="path-18" points="0 0 0 1080 1920 1080 1920 0"></polyline>
        <path d="M1347.949,57.948 C1299.123,85.112 1253.003,110.766 1158.47,110.766 C1063.935,110.766 1017.818,85.112 969,57.948 C918.121,29.641 865.515,0.365 761.62,0.365 C657.724,0.365 605.099,29.641 554.231,57.948 C505.394,85.112 459.274,110.766 364.719,110.766 C270.168,110.766 224.049,85.112 175.223,57.948 C129.879,32.721 83.165,6.725 0,1.366 L0,56.836 C73.532,61.969 114.38,84.701 157.32,108.59 C208.202,136.897 260.816,166.161 364.72,166.161 C468.616,166.161 521.242,136.897 572.122,108.59 C620.948,81.427 667.078,55.76 761.621,55.76 C856.165,55.76 902.273,81.427 951.099,108.59 C1001.97,136.897 1054.583,166.161 1158.471,166.161 C1262.356,166.161 1314.971,136.897 1365.839,108.59 C1414.664,81.427 1460.785,55.76 1555.319,55.76 C1649.853,55.76 1695.971,81.427 1744.787,108.59 C1790.13,133.817 1836.836,159.802 1920,165.16 L1920,109.69 C1846.468,104.559 1805.628,81.838 1762.689,57.948 C1711.821,29.641 1659.204,0.365 1555.319,0.365 C1451.432,0.365 1398.817,29.641 1347.949,57.948" id="path-20"></path>
        <polyline id="path-22" points="0 0 0 1080 1920 1080 1920 0"></polyline>
        <path d="M1347.949,57.674 C1299.123,84.836 1253.003,110.502 1158.47,110.502 C1063.935,110.502 1017.818,84.836 969,57.674 C918.121,29.365 865.515,0.103 761.62,0.103 C657.724,0.103 605.099,29.365 554.231,57.674 C505.394,84.836 459.274,110.502 364.719,110.502 C270.168,110.502 224.049,84.836 175.223,57.674 C129.879,32.445 83.165,6.461 0,1.104 L0,56.574 C73.532,61.705 114.38,84.427 157.32,108.328 C208.202,136.635 260.816,165.898 364.72,165.898 C468.616,165.898 521.242,136.634 572.122,108.328 C620.948,81.151 667.078,55.498 761.621,55.498 C856.165,55.498 902.273,81.151 951.099,108.328 C1001.97,136.635 1054.583,165.898 1158.471,165.898 C1262.356,165.898 1314.971,136.634 1365.839,108.328 C1414.664,81.151 1460.785,55.498 1555.319,55.498 C1649.853,55.498 1695.971,81.151 1744.787,108.328 C1790.13,133.555 1836.836,159.54 1920,164.897 L1920,109.425 C1846.468,104.292 1805.628,81.561 1762.689,57.673 C1711.821,29.364 1659.204,0.102 1555.319,0.102 C1451.432,0.103 1398.817,29.365 1347.949,57.674" id="path-24"></path>
        <polyline id="path-26" points="0 0 0 1080 1920 1080 1920 0"></polyline>
        <path d="M1347.949,58.422 C1299.123,85.573 1253.003,111.228 1158.47,111.228 C1063.935,111.228 1017.818,85.574 969,58.422 C918.121,30.103 865.515,0.839 761.62,0.839 C657.724,0.839 605.109,30.103 554.231,58.422 C505.394,85.573 459.274,111.228 364.719,111.228 C270.168,111.228 224.049,85.574 175.223,58.422 C129.879,33.185 83.165,7.198 0,1.84 L0,57.311 C73.532,62.444 114.38,85.173 157.32,109.052 C208.202,137.36 260.816,166.635 364.72,166.635 C468.616,166.635 521.242,137.36 572.122,109.052 C620.948,81.901 667.078,56.235 761.621,56.235 C856.165,56.235 902.273,81.901 951.099,109.052 C1001.97,137.36 1054.583,166.635 1158.471,166.635 C1262.356,166.635 1314.971,137.36 1365.839,109.052 C1414.664,81.901 1460.785,56.235 1555.319,56.235 C1649.853,56.235 1695.971,81.901 1744.787,109.052 C1790.13,134.28 1836.836,160.275 1920,165.633 L1920,110.153 C1846.468,105.022 1805.628,82.3 1762.689,58.423 C1711.821,30.104 1659.204,0.84 1555.319,0.84 C1451.432,0.839 1398.817,30.103 1347.949,58.422" id="path-28"></path>
        <polyline id="path-30" points="0 0 0 1080 1920 1080 1920 0"></polyline>
        <path d="M1347.949,58.147 C1299.123,85.309 1253.003,110.975 1158.47,110.975 C1063.935,110.975 1017.818,85.309 969,58.147 C918.121,29.838 865.515,0.576 761.62,0.576 C657.724,0.576 605.099,29.839 554.231,58.147 C505.394,85.309 459.274,110.975 364.719,110.975 C270.168,110.975 224.049,85.309 175.223,58.147 C129.879,32.92 83.165,6.934 0,1.577 L0,57.047 C73.532,62.178 114.38,84.901 157.32,108.79 C208.202,137.096 260.816,166.373 364.72,166.373 C468.616,166.373 521.242,137.096 572.122,108.79 C620.948,81.626 667.078,55.971 761.621,55.971 C856.165,55.971 902.273,81.626 951.099,108.79 C1001.97,137.096 1054.583,166.373 1158.471,166.373 C1262.356,166.373 1314.971,137.096 1365.839,108.79 C1414.664,81.626 1460.785,55.971 1555.319,55.971 C1649.853,55.971 1695.971,81.626 1744.787,108.79 C1790.13,134.015 1836.836,160.012 1920,165.371 L1920,109.899 C1846.468,104.765 1805.628,82.035 1762.689,58.147 C1711.821,29.838 1659.204,0.576 1555.319,0.576 C1451.432,0.576 1398.817,29.839 1347.949,58.147" id="path-32"></path>
        <polyline id="path-34" points="0 0 0 1080 1920 1080 1920 0"></polyline>
        <path d="M1347.949,57.883 C1299.123,85.048 1253.003,110.701 1158.47,110.701 C1063.935,110.701 1017.818,85.048 969,57.883 C918.121,29.576 865.515,0.299 761.62,0.299 C657.724,0.299 605.099,29.576 554.231,57.883 C505.394,85.048 459.274,110.701 364.719,110.701 C270.168,110.701 224.049,85.048 175.223,57.883 C129.879,32.657 83.165,6.66 0,1.301 L0,56.785 C73.532,61.915 114.38,84.637 157.32,108.526 C208.202,136.833 260.816,166.109 364.72,166.109 C468.616,166.109 521.242,136.833 572.122,108.526 C620.948,81.362 667.078,55.709 761.621,55.709 C856.165,55.709 902.273,81.362 951.099,108.526 C1001.97,136.833 1054.583,166.109 1158.471,166.109 C1262.356,166.109 1314.971,136.833 1365.839,108.526 C1414.664,81.362 1460.785,55.709 1555.319,55.709 C1649.853,55.709 1695.971,81.362 1744.787,108.526 C1790.13,133.753 1836.836,159.748 1920,165.108 L1920,109.625 C1846.468,104.494 1805.628,81.773 1762.689,57.883 C1711.821,29.576 1659.204,0.299 1555.319,0.299 C1451.432,0.299 1398.817,29.576 1347.949,57.883" id="path-36"></path>
        <polyline id="path-38" points="0 0 0 1080 1920 1080 1920 0"></polyline>
        <path d="M1347.949,57.62 C1299.123,84.784 1253.003,110.438 1158.47,110.438 C1063.935,110.438 1017.818,84.784 969,57.62 C918.121,29.3 865.515,0.038 761.62,0.038 C657.724,0.038 605.099,29.3 554.231,57.62 C505.394,84.784 459.274,110.438 364.719,110.438 C270.168,110.438 224.049,84.784 175.223,57.62 C129.879,32.382 83.165,6.396 0,1.039 L0,56.509 C73.532,61.642 114.38,84.373 157.32,108.263 C208.202,136.57 260.816,165.833 364.72,165.833 C468.616,165.833 521.242,136.569 572.122,108.263 C620.948,81.099 667.078,55.433 761.621,55.433 C856.165,55.433 902.273,81.099 951.099,108.263 C1001.97,136.57 1054.583,165.833 1158.471,165.833 C1262.356,165.833 1314.971,136.569 1365.839,108.263 C1414.664,81.099 1460.785,55.433 1555.319,55.433 C1649.853,55.433 1695.971,81.099 1744.787,108.263 C1790.13,133.49 1836.836,159.475 1920,164.832 L1920,109.362 C1846.468,104.231 1805.628,81.509 1762.689,57.62 C1711.821,29.3 1659.204,0.038 1555.319,0.038 C1451.432,0.038 1398.817,29.3 1347.949,57.62" id="path-40"></path>
        <polyline id="path-42" points="0 0 0 1080 1920 1080 1920 0"></polyline>
        <path d="M1347.949,58.344 C1299.123,85.508 1253.003,111.174 1158.47,111.174 C1063.935,111.174 1017.818,85.508 969,58.344 C918.121,30.037 865.515,0.775 761.62,0.775 C657.724,0.775 605.099,30.038 554.231,58.344 C505.394,85.508 459.274,111.174 364.719,111.174 C270.168,111.174 224.049,85.508 175.223,58.344 C129.879,33.117 83.165,7.132 0,1.775 L0,57.246 C73.532,62.377 114.38,85.099 157.32,108.987 C173.295,117.875 189.441,126.858 207.292,135 L522.15,135 C540.001,126.858 556.147,117.875 572.122,108.987 C620.948,81.824 667.078,56.17 761.621,56.17 C856.165,56.17 902.273,81.824 951.099,108.987 C967.071,117.875 983.214,126.858 1001.062,135 L1315.877,135 C1333.724,126.858 1349.867,117.875 1365.838,108.987 C1414.663,81.824 1460.784,56.17 1555.318,56.17 C1649.852,56.17 1695.97,81.824 1744.786,108.987 C1760.76,117.875 1776.904,126.858 1794.753,135 L1920,135 L1920,110.098 C1846.468,104.965 1805.628,82.235 1762.689,58.344 C1711.821,30.037 1659.204,0.775 1555.319,0.775 C1451.432,0.774 1398.817,30.037 1347.949,58.344" id="path-44"></path>
    </defs>
    <g id="Page-1" stroke="none" stroke-width="1" fill="none" fill-rule="evenodd">
        <g id="Artboard">
            <g id="waves">
                <g id="Group">
                    <g id="Clipped">
                        <mask id="mask-2" fill="white">
                            <use xlink:href="#path-1"></use>
                        </mask>
                        <g id="SVGID_1_"></g>
                        <g mask="url(#mask-2)">
                            <mask id="mask-4" fill="white">
                                <use xlink:href="#path-3"></use>
                            </mask>
                            <g id="SVGID_7_"></g>
                            <rect id="Rectangle-path" fill="url(#linearGradient-5)" mask="url(#mask-4)" x="0" y="0" width="1920" height="134.239"></rect>
                        </g>
                    </g>
                    <g id="Clipped">
                        <mask id="mask-7" fill="white">
                            <use xlink:href="#path-6"></use>
                        </mask>
                        <g id="SVGID_1_"></g>
                        <g mask="url(#mask-7)">
                            <g transform="translate(0.000000, 66.000000)">
                                <mask id="mask-9" fill="white">
                                    <use xlink:href="#path-8"></use>
                                </mask>
                                <g id="SVGID_12_" stroke="none" fill="none"></g>
                                <rect id="Rectangle-path" stroke="none" fill="url(#linearGradient-5)" fill-rule="evenodd" mask="url(#mask-9)" x="0" y="0.167" width="1920" height="165.795"></rect>
                            </g>
                        </g>
                    </g>
                    <g id="Clipped">
                        <mask id="mask-11" fill="white">
                            <use xlink:href="#path-10"></use>
                        </mask>
                        <g id="SVGID_1_"></g>
                        <g mask="url(#mask-11)">
                            <g transform="translate(0.000000, 163.000000)">
                                <mask id="mask-13" fill="white">
                                    <use xlink:href="#path-12"></use>
                                </mask>
                                <g id="SVGID_17_" stroke="none" fill="none"></g>
                                <rect id="Rectangle-path" stroke="none" fill="url(#linearGradient-5)" fill-rule="evenodd" mask="url(#mask-13)" x="0" y="0.904" width="1920" height="165.797"></rect>
                            </g>
                        </g>
                    </g>
                    <g id="Clipped">
                        <mask id="mask-15" fill="white">
                            <use xlink:href="#path-14"></use>
                        </mask>
                        <g id="SVGID_1_"></g>
                        <g mask="url(#mask-15)">
                            <g transform="translate(0.000000, 261.000000)">
                                <mask id="mask-17" fill="white">
                                    <use xlink:href="#path-16"></use>
                                </mask>
                                <g id="SVGID_22_" stroke="none" fill="none"></g>
                                <rect id="Rectangle-path" stroke="none" fill="url(#linearGradient-5)" fill-rule="evenodd" mask="url(#mask-17)" x="0" y="0.628" width="1920" height="165.809"></rect>
                            </g>
                        </g>
                    </g>
                    <g id="Clipped">
                        <mask id="mask-19" fill="white">
                            <use xlink:href="#path-18"></use>
                        </mask>
                        <g id="SVGID_1_"></g>
                        <g mask="url(#mask-19)">
                            <g transform="translate(0.000000, 359.000000)">
                                <mask id="mask-21" fill="white">
                                    <use xlink:href="#path-20"></use>
                                </mask>
                                <g id="SVGID_27_" stroke="none" fill="none"></g>
                                <rect id="Rectangle-path" stroke="none" fill="url(#linearGradient-5)" fill-rule="evenodd" mask="url(#mask-21)" x="0" y="0.365" width="1920" height="165.796"></rect>
                            </g>
                        </g>
                    </g>
                    <g id="Clipped">
                        <mask id="mask-23" fill="white">
                            <use xlink:href="#path-22"></use>
                        </mask>
                        <g id="SVGID_1_"></g>
                        <g mask="url(#mask-23)">
                            <g transform="translate(0.000000, 457.000000)">
                                <mask id="mask-25" fill="white">
                                    <use xlink:href="#path-24"></use>
                                </mask>
                                <g id="SVGID_32_" stroke="none" fill="none"></g>
                                <rect id="Rectangle-path" stroke="none" fill="url(#linearGradient-5)" fill-rule="evenodd" mask="url(#mask-25)" x="0" y="0.103" width="1920" height="165.795"></rect>
                            </g>
                        </g>
                    </g>
                    <g id="Clipped">
                        <mask id="mask-27" fill="white">
                            <use xlink:href="#path-26"></use>
                        </mask>
                        <g id="SVGID_1_"></g>
                        <g mask="url(#mask-27)">
                            <g transform="translate(0.000000, 554.000000)">
                                <mask id="mask-29" fill="white">
                                    <use xlink:href="#path-28"></use>
                                </mask>
                                <g id="SVGID_37_" stroke="none" fill="none"></g>
                                <rect id="Rectangle-path" stroke="none" fill="url(#linearGradient-5)" fill-rule="evenodd" mask="url(#mask-29)" x="0" y="0.839" width="1920" height="165.796"></rect>
                            </g>
                        </g>
                    </g>
                    <g id="Clipped">
                        <mask id="mask-31" fill="white">
                            <use xlink:href="#path-30"></use>
                        </mask>
                        <g id="SVGID_1_"></g>
                        <g mask="url(#mask-31)">
                            <g transform="translate(0.000000, 652.000000)">
                                <mask id="mask-33" fill="white">
                                    <use xlink:href="#path-32"></use>
                                </mask>
                                <g id="SVGID_42_" stroke="none" fill="none"></g>
                                <rect id="Rectangle-path" stroke="none" fill="url(#linearGradient-5)" fill-rule="evenodd" mask="url(#mask-33)" x="0" y="0.576" width="1920" height="165.797"></rect>
                            </g>
                        </g>
                    </g>
                    <g id="Clipped">
                        <mask id="mask-35" fill="white">
                            <use xlink:href="#path-34"></use>
                        </mask>
                        <g id="SVGID_1_"></g>
                        <g mask="url(#mask-35)">
                            <g transform="translate(0.000000, 750.000000)">
                                <mask id="mask-37" fill="white">
                                    <use xlink:href="#path-36"></use>
                                </mask>
                                <g id="SVGID_47_" stroke="none" fill="none"></g>
                                <rect id="Rectangle-path" stroke="none" fill="url(#linearGradient-5)" fill-rule="evenodd" mask="url(#mask-37)" x="0" y="0.299" width="1920" height="165.811"></rect>
                            </g>
                        </g>
                    </g>
                    <g id="Clipped">
                        <mask id="mask-39" fill="white">
                            <use xlink:href="#path-38"></use>
                        </mask>
                        <g id="SVGID_1_"></g>
                        <g mask="url(#mask-39)">
                            <g transform="translate(0.000000, 848.000000)">
                                <mask id="mask-41" fill="white">
                                    <use xlink:href="#path-40"></use>
                                </mask>
                                <g id="SVGID_52_" stroke="none" fill="none"></g>
                                <rect id="Rectangle-path" stroke="none" fill="url(#linearGradient-5)" fill-rule="evenodd" mask="url(#mask-41)" x="0" y="0.038" width="1920" height="165.795"></rect>
                            </g>
                        </g>
                    </g>
                    <g id="Clipped">
                        <mask id="mask-43" fill="white">
                            <use xlink:href="#path-42"></use>
                        </mask>
                        <g id="SVGID_1_"></g>
                        <g mask="url(#mask-43)">
                            <g transform="translate(0.000000, 945.000000)">
                                <mask id="mask-45" fill="white">
                                    <use xlink:href="#path-44"></use>
                                </mask>
                                <g id="SVGID_57_" stroke="none" fill="none"></g>
                                <rect id="Rectangle-path" stroke="none" fill="url(#linearGradient-5)" fill-rule="evenodd" mask="url(#mask-45)" x="0" y="0.774" width="1920" height="134.226"></rect>
                            </g>
                        </g>
                    </g>
                </g>
            </g>
        </g>
    </g>
</svg>