<?xml version="1.0" encoding="utf-8"?>
<!-- Generator: Adobe Illustrator 16.0.0, SVG Export Plug-In . SVG Version: 6.00 Build 0)  -->
<!DOCTYPE svg PUBLIC "-//W3C//DTD SVG 1.1//EN" "http://www.w3.org/Graphics/SVG/1.1/DTD/svg11.dtd">
<svg version="1.1" id="Layer_1" xmlns="http://www.w3.org/2000/svg" xmlns:xlink="http://www.w3.org/1999/xlink" x="0px" y="0px"
	 width="1136.65px" height="560px" viewBox="0 0 1136.65 560" enable-background="new 0 0 1136.65 560" xml:space="preserve">
<g>
	<g>
		<defs>
			<rect id="SVGID_1_" width="1136.649" height="560"/>
		</defs>
		<clipPath id="SVGID_2_">
			<use xlink:href="#SVGID_1_"  overflow="visible"/>
		</clipPath>
		<g opacity="0.2" clip-path="url(#SVGID_2_)">
			<g>
				<defs>
					<rect id="SVGID_3_" x="-1003.15" y="-486.1" width="2355.07" height="1313.083"/>
				</defs>
				<clipPath id="SVGID_4_">
					<use xlink:href="#SVGID_3_"  overflow="visible"/>
				</clipPath>
				<g clip-path="url(#SVGID_4_)">
					<defs>
						<path id="SVGID_5_" d="M-532.111,41.143c123.308,0,185.766-33.628,246.151-66.144C-228.011-56.202-173.262-85.67-61.055-85.67
							c112.208,0,166.931,29.468,224.879,60.669c60.375,32.516,122.817,66.144,246.115,66.144
							c123.295,0,185.74-33.628,246.112-66.144C713.998-56.202,768.735-85.67,880.932-85.67s166.933,29.468,224.867,60.669
							c60.387,32.516,122.818,66.144,246.125,66.144v-63.646c-112.207,0-166.931-29.468-224.879-60.668
							c-60.372-32.516-122.818-66.144-246.113-66.144c-123.296,0-185.74,33.628-246.113,66.144
							c-57.948,31.2-112.685,60.668-224.879,60.668c-112.198,0-166.931-29.468-224.869-60.668
							c-60.385-32.516-122.819-66.144-246.125-66.144c-123.307,0-185.765,33.628-246.138,66.144
							c-57.96,31.2-112.697,60.668-224.918,60.668c-112.216,0-166.952-29.468-224.9-60.668
							c-60.388-32.516-122.831-66.144-246.138-66.144v63.645c112.207,0,166.94,29.468,224.889,60.669
							C-717.872,7.515-655.427,41.143-532.111,41.143"/>
					</defs>
					<clipPath id="SVGID_6_">
						<use xlink:href="#SVGID_5_"  overflow="visible"/>
					</clipPath>
					<rect x="-1003.149" y="-149.315" clip-path="url(#SVGID_6_)" fill="#FFFFFF" width="2355.073" height="190.458"/>
				</g>
				<g clip-path="url(#SVGID_4_)">
					<defs>
						<path id="SVGID_7_" d="M-532.111,153.395c123.308,0,185.766-33.613,246.151-66.129
							c57.949-31.202,112.698-60.684,224.905-60.684c112.208,0,166.931,29.482,224.879,60.684
							c60.375,32.516,122.817,66.129,246.115,66.129c123.295,0,185.74-33.613,246.112-66.129
							c57.947-31.202,112.685-60.684,224.881-60.684s166.933,29.482,224.867,60.684c60.387,32.516,122.818,66.129,246.125,66.129
							v-63.63c-112.207,0-166.931-29.468-224.879-60.67c-60.372-32.515-122.818-66.143-246.113-66.143
							c-123.296,0-185.74,33.628-246.113,66.143c-57.948,31.202-112.685,60.67-224.879,60.67
							c-112.198,0-166.931-29.468-224.869-60.67C124.685-3.42,62.251-37.048-61.055-37.048
							c-123.307,0-185.765,33.628-246.138,66.143c-57.96,31.202-112.697,60.67-224.918,60.67c-112.216,0-166.952-29.468-224.9-60.67
							c-60.388-32.515-122.831-66.143-246.138-66.143v63.63c112.207,0,166.94,29.482,224.889,60.684
							C-717.872,119.782-655.427,153.395-532.111,153.395"/>
					</defs>
					<clipPath id="SVGID_8_">
						<use xlink:href="#SVGID_7_"  overflow="visible"/>
					</clipPath>
					<rect x="-1003.149" y="-37.048" clip-path="url(#SVGID_8_)" fill="#FFFFFF" width="2355.073" height="190.443"/>
				</g>
				<g clip-path="url(#SVGID_4_)">
					<defs>
						<path id="SVGID_9_" d="M-532.111,265.664c123.308,0,185.766-33.614,246.151-66.13
							c57.949-31.216,112.698-60.684,224.905-60.684c112.208,0,166.931,29.468,224.879,60.684
							c60.375,32.516,122.817,66.13,246.115,66.13c123.295,0,185.74-33.614,246.112-66.13
							c57.947-31.216,112.685-60.684,224.881-60.684s166.933,29.468,224.867,60.684c60.387,32.516,122.818,66.13,246.125,66.13
							v-63.632c-112.207,0-166.931-29.483-224.879-60.683c-60.372-32.517-122.818-66.129-246.113-66.129
							c-123.296,0-185.74,33.612-246.113,66.129c-57.948,31.2-112.685,60.683-224.879,60.683
							c-112.198,0-166.931-29.483-224.869-60.683C124.685,108.832,62.251,75.22-61.055,75.22
							c-123.307,0-185.765,33.612-246.138,66.129c-57.96,31.2-112.697,60.683-224.918,60.683
							c-112.216,0-166.952-29.483-224.9-60.683c-60.388-32.517-122.831-66.129-246.138-66.129v63.63
							c112.207,0,166.94,29.468,224.889,60.684C-717.872,232.05-655.427,265.664-532.111,265.664"/>
					</defs>
					<clipPath id="SVGID_10_">
						<use xlink:href="#SVGID_9_"  overflow="visible"/>
					</clipPath>
					<rect x="-1003.149" y="75.22" clip-path="url(#SVGID_10_)" fill="#FFFFFF" width="2355.073" height="190.444"/>
				</g>
				<g clip-path="url(#SVGID_4_)">
					<defs>
						<path id="SVGID_11_" d="M-532.111,377.93c123.308,0,185.766-33.628,246.151-66.144c57.949-31.188,112.698-60.67,224.905-60.67
							c112.208,0,166.931,29.482,224.879,60.67c60.375,32.516,122.817,66.144,246.115,66.144
							c123.295,0,185.74-33.628,246.112-66.144c57.947-31.188,112.685-60.67,224.881-60.67s166.933,29.482,224.867,60.67
							c60.387,32.516,122.818,66.144,246.125,66.144v-63.645c-112.207,0-166.931-29.467-224.879-60.655
							c-60.372-32.53-122.818-66.144-246.113-66.144c-123.296,0-185.74,33.614-246.113,66.144
							c-57.948,31.188-112.685,60.655-224.879,60.655c-112.198,0-166.931-29.467-224.869-60.655
							c-60.385-32.53-122.819-66.144-246.125-66.144c-123.307,0-185.752,33.614-246.138,66.144
							c-57.96,31.188-112.697,60.655-224.918,60.655c-112.216,0-166.952-29.467-224.9-60.655
							c-60.388-32.53-122.831-66.144-246.138-66.144v63.63c112.207,0,166.94,29.482,224.889,60.67
							C-717.872,344.302-655.427,377.93-532.111,377.93"/>
					</defs>
					<clipPath id="SVGID_12_">
						<use xlink:href="#SVGID_11_"  overflow="visible"/>
					</clipPath>
					<rect x="-1003.149" y="187.486" clip-path="url(#SVGID_12_)" fill="#FFFFFF" width="2355.073" height="190.444"/>
				</g>
				<g clip-path="url(#SVGID_4_)">
					<defs>
						<path id="SVGID_13_" d="M-532.111,490.198c123.308,0,185.766-33.629,246.151-66.145
							c57.949-31.202,112.698-60.669,224.905-60.669c112.208,0,166.931,29.467,224.879,60.669
							c60.375,32.516,122.817,66.145,246.115,66.145c123.295,0,185.74-33.629,246.112-66.145
							c57.947-31.202,112.685-60.669,224.881-60.669s166.933,29.467,224.867,60.669c60.387,32.516,122.818,66.145,246.125,66.145
							v-63.632c-112.207,0-166.931-29.482-224.879-60.685c-60.372-32.516-122.818-66.129-246.113-66.129
							c-123.296,0-185.74,33.613-246.113,66.129c-57.948,31.202-112.685,60.685-224.879,60.685
							c-112.198,0-166.931-29.482-224.869-60.685c-60.385-32.516-122.819-66.129-246.125-66.129
							c-123.307,0-185.765,33.613-246.138,66.129c-57.96,31.202-112.697,60.685-224.918,60.685
							c-112.216,0-166.952-29.482-224.9-60.685c-60.388-32.516-122.831-66.129-246.138-66.129v63.632
							c112.207,0,166.94,29.467,224.889,60.669C-717.872,456.569-655.427,490.198-532.111,490.198"/>
					</defs>
					<clipPath id="SVGID_14_">
						<use xlink:href="#SVGID_13_"  overflow="visible"/>
					</clipPath>
					<rect x="-1003.149" y="299.753" clip-path="url(#SVGID_14_)" fill="#FFFFFF" width="2355.073" height="190.445"/>
				</g>
				<g clip-path="url(#SVGID_4_)">
					<defs>
						<path id="SVGID_15_" d="M-532.111,602.465c123.308,0,185.766-33.628,246.151-66.144
							c57.949-31.202,112.698-60.67,224.905-60.67c112.208,0,166.931,29.468,224.879,60.67
							c60.375,32.516,122.817,66.144,246.115,66.144c123.295,0,185.74-33.628,246.112-66.144
							c57.947-31.202,112.685-60.67,224.881-60.67s166.933,29.468,224.867,60.67c60.387,32.516,122.818,66.144,246.125,66.144
							v-63.646c-112.207,0-166.931-29.467-224.879-60.669c-60.372-32.516-122.818-66.145-246.113-66.145
							c-123.296,0-185.74,33.629-246.113,66.145c-57.948,31.202-112.685,60.669-224.879,60.669
							c-112.198,0-166.931-29.467-224.869-60.669c-60.385-32.516-122.819-66.145-246.125-66.145
							c-123.307,0-185.765,33.629-246.138,66.145c-57.96,31.202-112.697,60.669-224.918,60.669
							c-112.216,0-166.952-29.467-224.9-60.669c-60.388-32.516-122.831-66.145-246.138-66.145v63.646
							c112.207,0,166.94,29.468,224.889,60.67C-717.872,568.837-655.427,602.465-532.111,602.465"/>
					</defs>
					<use xlink:href="#SVGID_15_"  overflow="visible" fill="#FFFFFF"/>
					<clipPath id="SVGID_16_">
						<use xlink:href="#SVGID_15_"  overflow="visible"/>
					</clipPath>
					<rect x="-1003.149" y="412.005" clip-path="url(#SVGID_16_)" fill="#FFFFFF" width="2355.073" height="190.46"/>
				</g>
				<g clip-path="url(#SVGID_4_)">
					<defs>
						<path id="SVGID_17_" d="M-532.111,714.717c123.308,0,185.766-33.614,246.151-66.13
							c57.949-31.202,112.698-60.684,224.905-60.684c112.208,0,166.931,29.481,224.879,60.684
							c60.375,32.516,122.817,66.13,246.115,66.13c123.295,0,185.74-33.614,246.112-66.13
							c57.947-31.202,112.685-60.684,224.881-60.684s166.933,29.481,224.867,60.684c60.387,32.516,122.818,66.13,246.125,66.13
							v-63.63c-112.207,0-166.931-29.468-224.879-60.67c-60.372-32.53-122.818-66.144-246.113-66.144
							c-123.296,0-185.74,33.613-246.113,66.144c-57.948,31.202-112.685,60.67-224.879,60.67
							c-112.198,0-166.931-29.468-224.869-60.67c-60.385-32.53-122.819-66.144-246.125-66.144
							c-123.307,0-185.765,33.613-246.138,66.144c-57.96,31.202-112.697,60.67-224.918,60.67c-112.216,0-166.952-29.468-224.9-60.67
							c-60.388-32.53-122.831-66.144-246.138-66.144v63.63c112.207,0,166.94,29.481,224.889,60.684
							C-717.872,681.103-655.427,714.717-532.111,714.717"/>
					</defs>
					<clipPath id="SVGID_18_">
						<use xlink:href="#SVGID_17_"  overflow="visible"/>
					</clipPath>
					<rect x="-1003.149" y="524.273" clip-path="url(#SVGID_18_)" fill="#FFFFFF" width="2355.073" height="190.443"/>
				</g>
			</g>
		</g>
	</g>
</g>
</svg>
