<?xml version="1.0" encoding="UTF-8" standalone="no"?>
<svg width="240px" height="280px" viewBox="0 0 240 280" version="1.1" xmlns="http://www.w3.org/2000/svg" xmlns:xlink="http://www.w3.org/1999/xlink" xmlns:sketch="http://www.bohemiancoding.com/sketch/ns">
    <!-- Generator: Sketch 3.2.2 (9983) - http://www.bohemiancoding.com/sketch -->
    <title>Artboard 1</title>
    <desc>Created with Sketch.</desc>
    <defs>
        <linearGradient x1="0%" y1="50%" x2="100%" y2="50%" id="linearGradient-1">
            <stop stop-color="#B500FF" offset="0%"></stop>
            <stop stop-color="#3800FF" offset="100%"></stop>
        </linearGradient>
        <linearGradient x1="25.5761447%" y1="50%" x2="100%" y2="50%" id="linearGradient-2">
            <stop stop-color="#A700FF" offset="0%"></stop>
            <stop stop-color="#8300FF" offset="100%"></stop>
        </linearGradient>
        <linearGradient x1="87.785396%" y1="62.0230485%" x2="4.35221354%" y2="50%" id="linearGradient-3">
            <stop stop-color="#7800FF" offset="0%"></stop>
            <stop stop-color="#4100FE" offset="100%"></stop>
        </linearGradient>
        <linearGradient x1="25.5761447%" y1="50%" x2="85.2734375%" y2="22.5027902%" id="linearGradient-4">
            <stop stop-color="#A700FF" offset="0%"></stop>
            <stop stop-color="#8300FF" offset="100%"></stop>
        </linearGradient>
        <linearGradient x1="86.9335938%" y1="18.9648438%" x2="7.05078125%" y2="50%" id="linearGradient-5">
            <stop stop-color="#7800FF" offset="0%"></stop>
            <stop stop-color="#4100FE" offset="100%"></stop>
        </linearGradient>
    </defs>
    <g id="Page-1" stroke="none" stroke-width="1" fill="none" fill-rule="evenodd" sketch:type="MSPage">
        <g id="Artboard-1" sketch:type="MSArtboardGroup">
            <rect id="Rectangle-2" fill="url(#linearGradient-1)" sketch:type="MSShapeGroup" x="-1" y="0" width="242" height="280"></rect>
            <path d="M120,140 L0,70 L120,-5.68434189e-14 L120,140 Z" id="Triangle-1" fill="url(#linearGradient-2)" sketch:type="MSShapeGroup"></path>
            <path d="M240,140 L120,70 L240,-5.68434189e-14 L240,140 Z" id="Triangle-2" fill="url(#linearGradient-3)" sketch:type="MSShapeGroup" transform="translate(180.000000, 70.000000) scale(-1, 1) translate(-180.000000, -70.000000) "></path>
            <path d="M120,280 L0,210 L120,140 L120,280 Z" id="Triangle-4" fill="url(#linearGradient-4)" sketch:type="MSShapeGroup"></path>
            <path d="M240,280 L120,210 L240,140 L240,280 Z" id="Triangle-3" fill="url(#linearGradient-5)" sketch:type="MSShapeGroup" transform="translate(180.000000, 210.000000) scale(-1, 1) translate(-180.000000, -210.000000) "></path>
        </g>
    </g>
</svg>