<?xml version="1.0" encoding="UTF-8"?>
<svg width="58px" height="54px" viewBox="0 0 58 54" version="1.1" xmlns="http://www.w3.org/2000/svg" xmlns:xlink="http://www.w3.org/1999/xlink">
    <!-- Generator: Sketch 40.3 (33839) - http://www.bohemiancoding.com/sketch -->
    <title>Page 1</title>
    <desc>Created with Sketch.</desc>
    <defs></defs>
    <g id="Page-1" stroke="none" stroke-width="1" fill="none" fill-rule="evenodd">
        <g id="Profile_Hero_Pass" transform="translate(-434.000000, -221.000000)" fill="#FFFFFF">
            <g id="Group-19-Copy-5" transform="translate(389.000000, 221.000000)">
                <g id="Page-1" transform="translate(45.000000, 0.000000)">
                    <path d="M15.5534888,33.9463714 L9.61198133,39.9819763 L9.61198133,34.6586641 C9.61198133,34.1060397 9.16995697,33.6498218 8.62417618,33.6498218 L6.07821949,33.6498218 C5.65942652,33.6498218 1.98093938,33.5029811 1.98093938,29.490399 L1.98093938,6.25077463 C1.98093938,5.82618764 2.12637104,2.08465919 6.07821949,2.08465919 L41.6935158,2.08465919 C42.1111315,2.0906348 45.7967608,2.23819252 45.7967608,6.24408195 L45.7967608,9.47385919 C45.7967608,10.0272007 46.239413,10.4772836 46.7846444,10.4772836 C47.3297188,10.4772836 47.7737053,10.0279177 47.7737053,9.47385919 L47.7737053,6.24408195 C47.7737053,1.36551447 43.7966633,0.0796429268 41.6935158,0.0796429268 L6.07892585,0.0796429268 C1.27332368,0.0796429268 -7.84844451e-06,4.11572911 -7.84844451e-06,6.24471935 L-7.84844451e-06,29.4911161 C-7.84844451e-06,34.3709584 3.97640622,35.6628852 6.07892585,35.6628852 L7.63111258,35.6628852 L7.63111258,42.4061616 C7.63111258,42.8132998 7.87355101,43.1762185 8.24352666,43.3365242 C8.36447118,43.3848072 8.49138051,43.409586 8.62551042,43.409586 C8.87987848,43.409586 9.13424655,43.3103112 9.32253072,43.1138332 L16.9536512,35.3670527 C17.3408149,34.9739372 17.3408149,34.3400446 16.9536512,33.9470088 C16.5651532,33.5519811 15.9400246,33.5519811 15.5534888,33.9463714" id="Fill-1"></path>
                    <path d="M51.8710874,12.9873106 L26.4320834,12.9873106 C24.3288574,12.9873106 20.3525218,14.2799545 20.3525218,19.1591593 L20.3525218,39.8223398 C20.3525218,44.7022618 24.3288574,45.9941886 26.4320834,45.9941886 L34.0631253,45.9941886 C34.609534,45.9941886 35.0509304,45.5433886 35.0509304,44.9906846 C35.0509304,44.4312081 34.609534,43.9818423 34.0631253,43.9818423 L26.4320834,43.9818423 C26.0145461,43.9818423 22.3361375,43.8335675 22.3361375,39.8223398 L22.3361375,19.1597967 C22.3361375,15.1539073 26.0145461,15.000374 26.4320834,15.000374 L51.8710874,15.000374 C55.8223865,15.000374 55.9683675,18.7419821 55.9749602,19.1597967 L55.9749602,39.8223398 C55.9749602,43.8335675 52.289331,43.9831171 51.8710874,43.9831171 L46.7865516,43.9831171 C46.2407708,43.9831171 45.7974122,44.4312081 45.7974122,44.9919593 L45.7974122,50.3152715 L39.8526084,44.2782325 C39.4634041,43.8851967 38.8396882,43.8851967 38.452446,44.2782325 C38.063948,44.671348 38.063948,45.3052407 38.452446,45.6983561 L46.0835664,53.4450569 C46.2771876,53.6429691 46.5262187,53.7408894 46.7865516,53.7408894 C46.9127545,53.7408894 47.0402917,53.7160309 47.1611578,53.6663935 C47.5312119,53.5068049 47.7744352,53.1439659 47.7744352,52.7373854 L47.7744352,45.9941886 L51.8710874,45.9941886 C53.9735286,45.9941886 57.950649,44.7022618 57.950649,39.8223398 L57.950649,19.1597967 C57.9513553,17.0247512 56.6780238,12.9873106 51.8710874,12.9873106" id="Fill-4"></path>
                    <path d="M28.9780008,25.3309125 L49.3317627,25.3309125 C49.8762092,25.3309125 50.3202742,24.881467 50.3202742,24.3274881 C50.3202742,23.7666572 49.8762092,23.3186459 49.3317627,23.3186459 L28.9780008,23.3186459 C28.4335543,23.3186459 27.9842309,23.7680914 27.9842309,24.3274881 C27.9842309,24.8821841 28.43222,25.3309125 28.9780008,25.3309125" id="Fill-7"></path>
                    <path d="M28.9780008,30.4945246 L49.3317627,30.4945246 C49.8762092,30.4945246 50.3202742,30.045079 50.3202742,29.4911002 C50.3202742,28.9370416 49.8762092,28.4889506 49.3317627,28.4889506 L28.9780008,28.4889506 C28.4335543,28.4889506 27.9842309,28.9370416 27.9842309,29.4911002 C27.9842309,30.045079 28.43222,30.4945246 28.9780008,30.4945246" id="Fill-9"></path>
                    <path d="M28.9780008,35.6628772 L49.3317627,35.6628772 C49.8762092,35.6628772 50.3202742,35.2134317 50.3202742,34.6593732 C50.3202742,34.1066691 49.8762092,33.6505309 49.3317627,33.6505309 L28.9780008,33.6505309 C28.4335543,33.6505309 27.9842309,34.1053146 27.9842309,34.6593732 C27.9842309,35.2147862 28.43222,35.6628772 28.9780008,35.6628772" id="Fill-11"></path>
                </g>
            </g>
        </g>
    </g>
</svg>