<?xml version="1.0" encoding="UTF-8"?>
<svg width="26px" height="26px" viewBox="0 0 26 26" version="1.1" xmlns="http://www.w3.org/2000/svg" xmlns:xlink="http://www.w3.org/1999/xlink">
    <!-- Generator: Sketch 46.2 (44496) - http://www.bohemiancoding.com/sketch -->
    <title>ic_info</title>
    <desc>Created with Sketch.</desc>
    <defs></defs>
    <g id="Final_Design" stroke="none" stroke-width="1" fill="none" fill-rule="evenodd">
        <g id="festival_eventpage_alert" transform="translate(-37.000000, -17.000000)" fill="#FFFFFF">
            <g id="ic_info" transform="translate(37.000000, 17.000000)">
                <g id="Group-3">
                    <path d="M18.8943329,22.1393939 C14.4822117,25.0545455 8.53372684,24.4636364 4.75190865,20.6818182 C0.339787441,16.3090909 0.339787441,9.17878788 4.75190865,4.80606061 C6.87918138,2.67878788 9.71554502,1.4969697 12.7094844,1.4969697 C15.7034238,1.4969697 18.5397874,2.67878788 20.6670602,4.80606061 C24.4094844,8.54848485 25.0397874,14.4969697 22.1246359,18.9484848 L21.9276662,19.2636364 L23.5034238,23.5181818 L19.2488784,21.9424242 L18.8943329,22.1393939 Z M21.6913026,3.74242424 C19.2882723,1.33939394 16.0973632,0 12.7094844,0 C9.32160562,0 6.13069653,1.33939394 3.72766623,3.74242424 C-1.23597013,8.70606061 -1.23597013,16.7818182 3.68827229,21.7454545 C7.86402987,25.9212121 14.3640299,26.669697 19.3670602,23.5969697 L25.9064541,26 L23.5034238,19.4606061 C26.5761511,14.4575758 25.8276662,7.91818182 21.6913026,3.74242424 L21.6913026,3.74242424 Z" id="Fill-1"></path>
                </g>
                <path d="M12.5363636,17 C13.3849091,17 14.0727273,17.6878182 14.0727273,18.5363636 C14.0727273,19.3849091 13.3849091,20.0727273 12.5363636,20.0727273 C11.6878182,20.0727273 11,19.3849091 11,18.5363636 C11,17.6878182 11.6878182,17 12.5363636,17" id="Fill-4"></path>
                <path d="M12.5363636,6 C11.669697,6 11,6.70909091 11,7.53636364 L11,12.5787879 C11,13.4454545 11.7090909,14.1151515 12.5363636,14.1151515 C13.4030303,14.1151515 14.0727273,13.4060606 14.0727273,12.5787879 L14.0727273,7.53636364 C14.0727273,6.70909091 13.3636364,6 12.5363636,6" id="Fill-6"></path>
            </g>
        </g>
    </g>
</svg>