<svg width="26" height="26" viewBox="0 0 26 26" xmlns="http://www.w3.org/2000/svg"><title>ic_info</title><g fill="#FFF" fill-rule="evenodd"><path d="M18.894 22.14c-4.412 2.915-10.36 2.324-14.142-1.458C.34 16.31.34 9.18 4.752 4.806c2.127-2.127 4.964-3.31 7.957-3.31 2.993 0 5.83 1.183 7.957 3.31 3.742 3.742 4.373 9.69 1.458 14.142l-.197.316 1.575 4.254-4.254-1.576-.356.197zM21.69 3.74C19.29 1.34 16.098 0 12.71 0 9.32 0 6.13 1.34 3.727 3.742c-4.964 4.964-4.964 13.04-.04 18.003 4.176 4.176 10.676 4.925 15.68 1.852L25.905 26l-2.403-6.54C26.576 14.46 25.828 7.92 21.69 3.743z"/><path d="M12.536 17c.85 0 1.537.688 1.537 1.536 0 .85-.688 1.537-1.537 1.537-.848 0-1.536-.688-1.536-1.537 0-.848.688-1.536 1.536-1.536M12.536 6C11.67 6 11 6.71 11 7.536v5.043c0 .865.71 1.535 1.536 1.535.867 0 1.537-.71 1.537-1.536V7.535c0-.827-.71-1.536-1.537-1.536"/></g></svg>