<?xml version="1.0" encoding="UTF-8"?>
<svg width="48px" height="48px" viewBox="0 0 48 48" version="1.1" xmlns="http://www.w3.org/2000/svg" xmlns:xlink="http://www.w3.org/1999/xlink">
    <!-- Generator: Sketch 40.3 (33839) - http://www.bohemiancoding.com/sketch -->
    <title>Page 1</title>
    <desc>Created with Sketch.</desc>
    <defs>
        <polygon id="path-1" points="23.9966705 0 0 0 0 47.9810343 47.9933409 47.9810343 47.9933409 0 23.9966705 0"></polygon>
    </defs>
    <g id="Page-1" stroke="none" stroke-width="1" fill="none" fill-rule="evenodd">
        <g id="Profile_PastEvents" transform="translate(-269.000000, -611.000000)">
            <g id="Group-4">
                <g id="Group-32">
                    <g id="Page-1" transform="translate(269.000000, 611.000000)">
                        <mask id="mask-2" fill="white">
                            <use xlink:href="#path-1"></use>
                        </mask>
                        <g id="Clip-2"></g>
                        <path d="M2.66564644,10.6624591 L33.3202322,10.6624591 L33.3202322,2.66564644 L2.66564644,2.66564644 L2.66564644,10.6624591 Z M34.6530237,0 L1.33285488,0 C0.586511873,0 0,0.586448549 0,1.33285488 L0,11.995314 C0,12.741657 0.586511873,13.3280422 1.33285488,13.3280422 L34.6530237,13.3280422 C35.3993668,13.3280422 35.985752,12.741657 35.985752,11.995314 L35.985752,1.33285488 C35.985752,0.586448549 35.3993668,0 34.6530237,0 L34.6530237,0 Z" id="Fill-1" fill="#FFFFFF" mask="url(#mask-2)"></path>
                        <path d="M40.3573931,4.85142586 C40.3573931,3.62527282 41.3170132,2.66558945 42.5432296,2.66558945 C43.7693826,2.66558945 44.7290026,3.62527282 44.7290026,4.85142586 C44.7290026,6.07757889 43.7693826,7.03726227 42.5432296,7.03726227 C41.3170132,7.03726227 40.3573931,6.07757889 40.3573931,4.85142586 M47.8210765,11.3554892 L46.0617942,8.2634153 C46.9148391,7.41037045 47.4479683,6.18421741 47.4479683,4.90474512 C47.4479683,2.23909868 45.2621319,0.0532622691 42.5964855,0.0532622691 C39.9309024,0.0532622691 37.7451293,2.23909868 37.7451293,4.90474512 C37.7451293,7.57039156 39.9309024,9.75616464 42.5964855,9.75616464 C43.0230396,9.75616464 43.3962111,9.70278206 43.7693826,9.59620686 L45.5286649,12.6883441 C45.7952612,13.1148348 46.221752,13.3813678 46.701562,13.3813678 C46.9148391,13.3813678 47.181372,13.3280485 47.3412665,13.2214734 C47.9277784,12.7949193 48.1943113,11.9419377 47.8210765,11.3554892" id="Fill-3" fill="#FFFFFF" mask="url(#mask-2)"></path>
                        <path d="M2.66562744,18.6593288 C1.17294142,18.6593288 -1.89973616e-05,19.8321625 -1.89973616e-05,21.3249119 C-1.89973616e-05,22.8176612 1.17294142,23.990495 2.66562744,23.990495 C4.15837678,23.990495 5.33127388,22.8176612 5.33127388,21.3249119 C5.33127388,19.8321625 4.15837678,18.6593288 2.66562744,18.6593288" id="Fill-4" fill="#FFFFFF" mask="url(#mask-2)"></path>
                        <path d="M2.66562744,26.6561541 C1.17294142,26.6561541 -1.89973616e-05,27.8289879 -1.89973616e-05,29.3218005 C-1.89973616e-05,30.8144865 1.17294142,31.9873203 2.66562744,31.9873203 C4.15837678,31.9873203 5.33127388,30.8144865 5.33127388,29.3218005 C5.33127388,27.8289879 4.15837678,26.6561541 2.66562744,26.6561541" id="Fill-5" fill="#FFFFFF" mask="url(#mask-2)"></path>
                        <path d="M2.66562744,34.6529794 C1.17294142,34.6529794 -1.89973616e-05,35.8258132 -1.89973616e-05,37.3186259 C-1.89973616e-05,38.8113752 1.17294142,39.984209 2.66562744,39.984209 C4.15837678,39.984209 5.33127388,38.8113752 5.33127388,37.3186259 C5.33127388,35.8258132 4.15837678,34.6529794 2.66562744,34.6529794" id="Fill-6" fill="#FFFFFF" mask="url(#mask-2)"></path>
                        <path d="M2.66562744,42.6498047 C1.17294142,42.6498047 -1.89973616e-05,43.8226385 -1.89973616e-05,45.3154512 C-1.89973616e-05,46.8082005 1.17294142,47.9810343 2.66562744,47.9810343 C4.15837678,47.9810343 5.33127388,46.8082005 5.33127388,45.3154512 C5.33127388,43.8226385 4.15837678,42.6498047 2.66562744,42.6498047" id="Fill-7" fill="#FFFFFF" mask="url(#mask-2)"></path>
                        <path d="M34.6529921,19.992114 L9.32969921,19.992114 C8.58329288,19.992114 7.99690765,20.5785625 7.99690765,21.3249055 C7.99690765,22.0713119 8.58329288,22.6577604 9.32969921,22.6577604 L34.6529921,22.6577604 C35.3993351,22.6577604 35.9857836,22.0713119 35.9857836,21.3249055 C35.9857836,20.5785625 35.3993351,19.992114 34.6529921,19.992114" id="Fill-8" fill="#FFFFFF" mask="url(#mask-2)"></path>
                        <path d="M34.6529921,27.9889393 L9.32969921,27.9889393 C8.58329288,27.9889393 7.99690765,28.5753879 7.99690765,29.3217942 C7.99690765,30.0681372 8.58329288,30.6545858 9.32969921,30.6545858 L34.6529921,30.6545858 C35.3993351,30.6545858 35.9857836,30.0681372 35.9857836,29.3217942 C35.9857836,28.5753879 35.3993351,27.9889393 34.6529921,27.9889393" id="Fill-9" fill="#FFFFFF" mask="url(#mask-2)"></path>
                        <path d="M34.6529921,35.985828 L9.32969921,35.985828 C8.58329288,35.985828 7.99690765,36.5722765 7.99690765,37.3186195 C7.99690765,38.0649625 8.58329288,38.6514111 9.32969921,38.6514111 L34.6529921,38.6514111 C35.3993351,38.6514111 35.9857836,38.0649625 35.9857836,37.3186195 C35.9857836,36.5722765 35.3993351,35.985828 34.6529921,35.985828" id="Fill-10" fill="#FFFFFF" mask="url(#mask-2)"></path>
                        <path d="M34.6529921,43.9826533 L9.32969921,43.9826533 C8.58329288,43.9826533 7.99690765,44.5691018 7.99690765,45.3154449 C7.99690765,46.0618512 8.58329288,46.6482364 9.32969921,46.6482364 L34.6529921,46.6482364 C35.3993351,46.6482364 35.9857836,46.0618512 35.9857836,45.3154449 C35.9857836,44.5691018 35.3993351,43.9826533 34.6529921,43.9826533" id="Fill-11" fill="#FFFFFF" mask="url(#mask-2)"></path>
                    </g>
                </g>
            </g>
        </g>
    </g>
</svg>