<?xml version="1.0" encoding="UTF-8"?>
<svg width="55px" height="45px" viewBox="0 0 55 45" version="1.1" xmlns="http://www.w3.org/2000/svg" xmlns:xlink="http://www.w3.org/1999/xlink">
    <!-- Generator: Sketch 41.2 (35397) - http://www.bohemiancoding.com/sketch -->
    <title>Artboard</title>
    <desc>Created with Sketch.</desc>
    <defs></defs>
    <g id="Page-1" stroke="none" stroke-width="1" fill="none" fill-rule="evenodd">
        <g id="Artboard" fill="#FFFFFF">
            <g id="Group" transform="translate(1.000000, 1.000000)">
                <path d="M6.3556417,10.175427 C4.324442,10.175427 2.6208928,11.871409 2.6208928,13.8934162 L2.6208928,36.5273766 C2.6208928,38.5494613 4.324442,40.2452883 6.3556417,40.2452883 L46.7168928,40.2452883 C48.7480147,40.2452883 50.4515639,38.5494613 50.4515639,36.5273766 L50.4515639,13.8934162 C50.4515639,11.871409 48.7480147,10.175427 46.7168928,10.175427 L40.6888238,10.175427 C39.3129251,10.175427 37.8714185,9.19704144 37.4782379,7.82723964 L35.9057489,3.13086486 C35.8402966,2.8699982 35.447116,2.60905405 35.1850734,2.60905405 L17.9529134,2.60905405 C17.690793,2.60905405 17.2976902,2.8699982 17.2321601,3.13086486 L15.6596711,7.89247568 C15.2009604,9.19704144 13.8250617,10.2406631 12.4490852,10.2406631 L6.3556417,10.2406631 L6.3556417,10.175427 Z M46.7168928,42.8544198 L6.3556417,42.8544198 C2.88301322,42.8544198 0,39.9844216 0,36.5273766 L0,13.8934162 C0,10.4363712 2.88301322,7.56637297 6.3556417,7.56637297 L12.3835551,7.56637297 C12.6456755,7.56637297 13.0387783,7.30542883 13.1043084,7.04456216 L14.6768752,2.34818739 C15.1355081,1.04362162 16.5114068,0 17.8873833,0 L35.0540132,0 C36.4299897,0 37.8714185,0.978385586 38.2645991,2.34818739 L39.8370881,7.04456216 C39.9026182,7.30542883 40.2957988,7.56637297 40.5578414,7.56637297 L46.5858326,7.56637297 C50.0584611,7.56637297 52.9413965,10.4363712 52.9413965,13.8934162 L52.9413965,36.5273766 C53.0724567,40.0496577 50.1895213,42.8544198 46.7168928,42.8544198 L46.7168928,42.8544198 Z" id="Fill-1"></path>
                <path d="M26.5344228,13.3392895 C20.6538354,13.3392895 15.8255432,18.0843202 15.8255432,24.000113 C15.8255432,29.9159058 20.6538354,34.5992643 26.5344228,34.5992643 C32.415088,34.5992643 37.2433023,29.8543112 37.2433023,23.9385184 C37.2433023,18.0226481 32.415088,13.3392895 26.5344228,13.3392895 M26.5344228,37.0642103 C19.2919455,37.0642103 13.3495637,31.2100121 13.3495637,23.9385184 C13.3495637,16.7285418 19.2300733,10.812749 26.5344228,10.812749 C33.8387722,10.812749 39.6574095,16.7285418 39.6574095,23.9385184 C39.6574095,31.2100121 33.7768222,37.0642103 26.5344228,37.0642103" id="Fill-4"></path>
                <path d="M44.9477357,11.9365986 C42.916536,11.9365986 41.2130646,13.6325031 41.2130646,15.6545877 C41.2130646,17.676595 42.916536,19.3725769 44.9477357,19.3725769 C46.9789354,19.3725769 48.6824846,17.6766724 48.6824846,15.6545877 C48.6824846,13.6325031 46.9789354,11.9365986 44.9477357,11.9365986 M44.9477357,13.8934472 C45.9306094,13.8934472 46.716815,14.6761247 46.716815,15.6545877 C46.716815,16.6329733 45.9306094,17.4157283 44.9477357,17.4157283 C43.9649398,17.4157283 43.1787342,16.6329733 43.1787342,15.6545877 C43.1787342,14.6761247 43.9649398,13.8934472 44.9477357,13.8934472" id="Fill-6"></path>
            </g>
        </g>
    </g>
</svg>