<svg xmlns="http://www.w3.org/2000/svg" width="1920" height="1080" viewBox="0 0 1920 1080">
  <path fill="#FFF" d="M967.085 61.262c76.01 0 149.258-16.182 217.71-48.095L1213.036 0h-109.565l-.975.29c-43.8 13.036-89.357 19.646-135.412 19.646-46.054 0-91.613-6.61-135.412-19.646L830.7 0H721.133l28.243 13.167c68.45 31.913 141.7 48.095 217.708 48.095"/>
  <path fill="#FFF" d="M758.99 113.636c66.594 24.376 136.607 36.736 208.095 36.736s141.5-12.36 208.097-36.736c64.322-23.544 123.844-57.662 176.91-101.404L1366.93 0h-66.476l-1.833 1.334c-96.834 70.466-211.478 107.713-331.535 107.713-120.056 0-234.7-37.247-331.536-107.713L633.715 0H567.24l14.838 12.23c53.067 43.744 112.588 77.862 176.912 101.406"/>
  <path fill="#FFF" d="M680.78 177.964c90.243 40.82 186.57 61.515 286.305 61.515s196.062-20.696 286.304-61.516c87.158-39.425 164.053-95.417 228.544-166.422L1492.417 0h-56.482l-2.045 2.086c-60.172 61.366-130.595 109.604-209.312 143.373-81.508 34.965-168.14 52.694-257.493 52.694-89.352 0-175.986-17.73-257.495-52.695C630.873 111.69 560.45 63.45 500.28 2.085L498.234 0H441.75l10.485 11.542C516.725 82.546 593.62 138.54 680.78 177.964"/>
  <path fill="#FFF" d="M608.296 241.976c54.364 27.97 111.988 49.523 171.274 64.06 61.04 14.966 124.13 22.555 187.515 22.555 63.386 0 126.476-7.588 187.515-22.554 59.286-14.536 116.91-36.09 171.274-64.06 106.54-54.815 200.6-134.68 272.01-230.964L1606.055 0H1554.2l-2.087 2.658c-67.986 86.613-155.972 158.27-254.44 207.224-50.322 25.017-103.52 44.28-158.117 57.257-56.188 13.353-114.216 20.125-172.47 20.125-58.253 0-116.28-6.77-172.468-20.126C740.02 254.16 686.82 234.9 636.5 209.88 538.03 160.928 450.045 89.272 382.058 2.658L379.97 0h-51.854l8.167 11.012c71.413 96.283 165.473 176.148 272.013 230.964"/>
  <path fill="#FFF" d="M538.642 305.775c64.063 36.033 132.487 63.85 203.37 82.674 73.08 19.407 148.807 29.247 225.073 29.247 76.27 0 151.992-9.84 225.073-29.248 70.883-18.825 139.306-46.642 203.37-82.675 126.18-70.976 233.724-173.05 311.003-295.186L1713.233 0h-49.204l-2.06 3.11C1587.576 115.44 1485.76 209.112 1367.53 274c-60.105 32.99-124.16 58.44-190.38 75.647-68.253 17.733-138.93 26.726-210.066 26.726-71.137 0-141.813-8.992-210.065-26.726C690.795 332.44 626.742 306.99 566.636 274 448.407 209.113 346.59 115.44 272.2 3.11L270.14 0h-49.204l6.7 10.59c77.28 122.136 184.824 224.21 311.006 295.185"/>
  <path fill="#FFF" d="M470.635 369.428c73.413 44.124 152.33 78.233 234.562 101.38 84.857 23.89 172.97 36 261.89 36 88.92 0 177.03-12.11 261.89-36 82.228-23.146 161.146-57.256 234.56-101.38 145.25-87.3 265.3-211.502 347.173-359.18L1816.39 0h-47.505l-2.002 3.475c-79.373 137.758-193.93 253.403-331.287 334.435-69.506 41.004-144.08 72.687-221.65 94.17-80.03 22.165-163.086 33.403-246.86 33.403-83.772 0-166.83-11.238-246.86-33.403-77.57-21.483-152.144-53.166-221.65-94.17C361.218 256.878 246.66 141.232 167.286 3.475L165.284 0H117.78l5.68 10.247c81.875 147.68 201.926 271.882 347.175 359.18"/>
  <path fill="#FFF" d="M403.708 432.965c168.438 106.602 363.252 162.95 563.377 162.95s394.937-56.348 563.375-162.95C1694.382 329.22 1826.268 182.947 1911.857 9.96l4.93-9.96h-46.328l-1.933 3.777c-83.38 162.967-209.944 300.55-366.01 397.878-160.43 100.05-345.58 152.934-535.433 152.934S592.082 501.704 431.65 401.654C275.585 304.328 149.02 166.745 65.64 3.777L63.71 0H17.382l4.93 9.96C107.9 182.95 239.786 329.22 403.707 432.966"/>
  <path fill="#FFF" d="M407.65 539.173c83.68 46.963 173.035 83.212 265.587 107.74 95.417 25.29 194.282 38.11 293.848 38.11 97.29 0 193.97-12.25 287.353-36.408 90.612-23.445 178.29-58.13 260.597-103.088C1676.867 457.13 1816.5 329.432 1918.84 176.24l1.16-1.737v-77.86l-12.88 21c-96.614 157.507-232.652 289.334-393.41 381.232-81.52 46.602-168.72 82.587-259.173 106.954-93.282 25.128-189.995 37.87-287.45 37.87-99.85 0-198.85-13.367-294.256-39.73-92.474-25.55-181.396-63.24-264.298-112.018C244.737 395.58 107.954 257.976 12.972 94.02L0 71.63v81.056l1.074 1.69C102.256 313.624 242.847 446.683 407.65 539.174"/>
  <path fill="#FFF" d="M192.63 500.97c70.906 57.19 148.193 106.548 229.713 146.703 83.02 40.893 170.733 72.38 260.7 93.582 92.564 21.815 188.13 32.877 284.042 32.877 93.935 0 187.583-10.614 278.343-31.548 88.247-20.354 174.415-50.6 256.113-89.902 80.215-38.588 156.49-86.072 226.712-141.137 69.748-54.693 133.73-117.02 190.166-185.256l1.582-1.914v-66.68l-12.44 15.94c-54.372 69.678-116.66 133.443-185.14 189.53-68.867 56.407-144.074 105.108-223.535 144.754-80.91 40.37-166.472 71.457-254.308 92.402-90.396 21.555-183.76 32.483-277.492 32.483-95.76 0-191.082-11.4-283.318-33.89-89.588-21.842-176.708-54.235-258.938-96.28-80.77-41.295-156.96-91.964-226.46-150.596-69.16-58.343-131.687-124.566-185.85-196.83L0 238.504v68.338l1.503 1.886C57.85 379.448 122.153 444.13 192.63 500.97"/>
  <path fill="#FFF" d="M200.957 619.205c72.43 51.448 150.25 95.7 231.302 131.526 82.564 36.496 169.172 64.546 257.418 83.373 90.63 19.335 183.965 29.14 277.407 29.14 91.636 0 183.207-9.433 272.167-28.034 86.648-18.12 171.79-45.132 253.062-80.288 79.78-34.512 156.553-77.177 228.184-126.81 70.977-49.18 137.443-105.57 197.557-167.605L1920 458.5v-60.564l-12.06 13.018c-58.48 63.116-123.567 120.564-193.454 170.753-70.483 50.614-146.297 94.162-225.334 129.43-80.508 35.927-165.006 63.54-251.146 82.08-88.49 19.045-179.64 28.7-270.92 28.7-93.112 0-186.048-10.043-276.226-29.854-87.752-19.277-173.72-47.975-255.516-85.293-80.303-36.637-157.144-81.832-228.39-134.328-70.674-52.076-136.22-111.614-194.82-176.958L0 381.95v61.655l1.87 1.99c60.306 64.2 127.29 122.61 199.087 173.61"/>
  <path fill="#FFF" d="M967.085 952.35c178.892 0 353.32-33.017 518.444-98.135 159.452-62.88 304.868-153.43 432.208-269.136l2.262-2.057v-56.676l-11.73 11.06c-61.422 57.897-128.52 110.392-199.432 156.024-71.64 46.102-147.898 85.66-226.658 117.58-163.742 66.365-337.045 100.013-515.095 100.013-181.47 0-357.86-34.91-524.272-103.762-80-33.1-157.316-74.09-229.8-121.834-71.77-47.274-139.466-101.602-201.212-161.478L0 512.506v57.426l2.192 2.048c262.684 245.285 605.356 380.37 964.893 380.37"/>
  <path fill="#FFF" d="M452.135 951.667c164.363 59.583 337.618 89.794 514.95 89.794 174.196 0 344.57-29.176 506.39-86.72 161.283-57.352 310.662-141.66 443.987-250.583l2.538-2.073V647.06l-11.44 9.64c-128.993 108.64-274.218 193.434-431.644 252.023-162.98 60.657-334.51 91.412-509.83 91.412-178.564 0-353.07-31.873-518.674-94.735-159.943-60.714-306.94-148.438-436.905-260.734L0 634.722v55.59l2.472 2.07c134.496 112.64 285.784 199.878 449.663 259.285"/>
  <path fill="#FFF" d="M1369.436 1079.777c198.592-51.277 382.892-139.493 547.778-262.198l2.786-2.074V763.48l-11.186 8.56c-98.49 75.343-205.76 138.603-318.832 188.02-112.955 49.365-232.12 85.104-354.188 106.22l-79.3 13.72h212.082l.86-.223zM1565.63 1066.656L1531.4 1080h110.3l1.336-.585c95.527-41.77 187.7-92.9 273.957-151.966l3.008-2.062v-50.503l-10.956 7.69c-106.744 74.928-222.285 136.86-343.415 184.08M270.61 971.697c93.9 45.568 192.858 81.933 294.126 108.08l.858.223h212.082l-79.3-13.72c-124.997-21.623-246.875-58.557-362.25-109.772-115.53-51.285-224.834-117.026-324.876-195.392L0 752.303v52.485l2.723 2.073c83.624 63.696 173.754 119.155 267.887 164.837M291.136 1079.415l1.336.585h110.302l-34.23-13.344C242.02 1017.334 121.73 952.03 11.015 872.556L0 864.65v50.886l2.95 2.063c90.41 63.292 187.368 117.735 288.186 161.818M3.152 1025.386c28.898 18.746 58.627 36.814 88.357 53.704l1.602.91h86.85l-24.517-13.007c-49.342-26.18-98.004-55.144-144.64-86.09L0 973.73v49.61l3.152 2.046zM1778.727 1066.993l-24.52 13.007h86.85l1.603-.91c24.837-14.11 49.778-29.105 74.132-44.572l3.21-2.037V983.19l-10.75 6.982c-42.225 27.428-86.14 53.273-130.525 76.823"/>
</svg>
