<?xml version="1.0" encoding="utf-8"?>
<!-- Generator: Adobe Illustrator 16.0.0, SVG Export Plug-In . SVG Version: 6.00 Build 0)  -->
<!DOCTYPE svg PUBLIC "-//W3C//DTD SVG 1.1//EN" "http://www.w3.org/Graphics/SVG/1.1/DTD/svg11.dtd">
<svg version="1.1" id="Layer_1" xmlns="http://www.w3.org/2000/svg" xmlns:xlink="http://www.w3.org/1999/xlink" x="0px" y="0px"
	 width="1920px" height="1080px" viewBox="0 0 1920 1080" enable-background="new 0 0 1920 1080" xml:space="preserve">
<path fill="#FFFFFF" d="M967.085,61.262c76.01,0,149.258-16.182,217.709-48.095L1213.037,0h-109.565l-0.975,0.29
	c-43.799,13.036-89.357,19.646-135.412,19.646c-46.054,0-91.613-6.609-135.412-19.646L830.699,0H721.134l28.243,13.167
	C817.828,45.08,891.076,61.262,967.085,61.262"/>
<path fill="#FFFFFF" d="M758.99,113.636c66.594,24.376,136.607,36.736,208.095,36.736c71.488,0,141.501-12.36,208.097-36.736
	c64.322-23.544,123.844-57.662,176.91-101.404L1366.93,0h-66.476l-1.833,1.334c-96.835,70.466-211.479,107.713-331.536,107.713
	c-120.056,0-234.7-37.247-331.536-107.713L633.716,0h-66.475l14.837,12.231C635.145,55.974,694.666,90.092,758.99,113.636"/>
<path fill="#FFFFFF" d="M680.781,177.964c90.242,40.819,186.568,61.515,286.304,61.515s196.062-20.695,286.304-61.515
	c87.159-39.425,164.054-95.417,228.545-166.422L1492.417,0h-56.482l-2.045,2.086c-60.172,61.366-130.595,109.604-209.312,143.373
	c-81.508,34.966-168.141,52.695-257.493,52.695c-89.352,0-175.986-17.729-257.495-52.695
	c-78.717-33.77-149.139-82.007-209.31-143.373L498.234,0h-56.483l10.484,11.542C516.726,82.546,593.62,138.539,680.781,177.964"/>
<path fill="#FFFFFF" d="M608.296,241.976c54.364,27.971,111.988,49.523,171.274,64.06c61.04,14.966,124.13,22.555,187.515,22.555
	c63.386,0,126.476-7.589,187.515-22.555c59.286-14.536,116.911-36.089,171.274-64.06c106.54-54.815,200.6-134.681,272.011-230.964
	L1606.054,0h-51.855l-2.086,2.658c-67.986,86.613-155.972,158.27-254.441,207.224c-50.321,25.017-103.519,44.28-158.116,57.257
	c-56.188,13.354-114.216,20.126-172.47,20.126c-58.253,0-116.28-6.771-172.468-20.126c-54.598-12.977-107.797-32.24-158.117-57.257
	C538.029,160.928,450.044,89.271,382.057,2.658L379.97,0h-51.854l8.167,11.012C407.696,107.295,501.756,187.16,608.296,241.976"/>
<path fill="#FFFFFF" d="M538.642,305.775c64.063,36.033,132.487,63.85,203.37,82.674c73.08,19.408,148.807,29.248,225.073,29.248
	c76.269,0,151.992-9.84,225.073-29.248c70.883-18.824,139.306-46.641,203.369-82.674c126.182-70.976,233.725-173.05,311.004-295.186
	L1713.232,0h-49.204l-2.06,3.11c-74.392,112.329-176.207,206.002-294.438,270.891c-60.105,32.988-124.159,58.439-190.381,75.646
	c-68.252,17.733-138.928,26.726-210.065,26.726c-71.137,0-141.813-8.992-210.065-26.726
	c-66.223-17.206-130.276-42.657-190.382-75.646C448.406,209.112,346.591,115.439,272.199,3.11L270.14,0h-49.204l6.701,10.59
	C304.916,132.726,412.46,234.8,538.642,305.775"/>
<path fill="#FFFFFF" d="M470.635,369.428c73.413,44.124,152.331,78.233,234.562,101.38c84.857,23.889,172.97,35.999,261.889,35.999
	c88.92,0,177.032-12.11,261.89-35.999c82.229-23.146,161.147-57.256,234.561-101.38c145.249-87.299,265.3-211.502,347.173-359.181
	L1816.39,0h-47.505l-2.002,3.475c-79.373,137.758-193.931,253.403-331.287,334.435c-69.506,41.004-144.08,72.687-221.65,94.17
	c-80.031,22.165-163.086,33.403-246.86,33.403c-83.772,0-166.829-11.238-246.86-33.403c-77.569-21.483-152.144-53.166-221.65-94.17
	C361.218,256.878,246.659,141.232,167.286,3.475L165.284,0H117.78l5.681,10.247C205.335,157.926,325.386,282.129,470.635,369.428"/>
<path fill="#FFFFFF" d="M403.708,432.965C572.146,539.567,766.96,595.914,967.085,595.914s394.937-56.347,563.375-162.95
	c163.922-103.744,295.808-250.016,381.397-423.003L1916.786,0h-46.327l-1.932,3.777c-83.38,162.967-209.944,300.551-366.01,397.878
	c-160.43,100.05-345.58,152.934-535.433,152.934S592.082,501.705,431.65,401.655C275.585,304.328,149.021,166.744,65.641,3.777
	L63.708,0H17.382l4.929,9.961C107.902,182.948,239.787,329.221,403.708,432.965"/>
<path fill="#FFFFFF" d="M407.65,539.173c83.679,46.963,173.035,83.212,265.587,107.741c95.417,25.288,194.282,38.11,293.848,38.11
	c97.291,0,193.97-12.251,287.353-36.409c90.612-23.445,178.291-58.129,260.597-103.088
	c161.832-88.396,301.465-216.095,403.805-369.287l1.161-1.737V96.642l-12.882,21.001
	c-96.613,157.507-232.651,289.334-393.408,381.232c-81.521,46.602-168.72,82.587-259.174,106.954
	c-93.282,25.129-189.995,37.871-287.451,37.871c-99.848,0-198.85-13.367-294.255-39.729
	c-92.475-25.552-181.397-63.241-264.299-112.019C244.737,395.58,107.954,257.976,12.971,94.019L0,71.629v81.057l1.074,1.691
	C102.256,313.623,242.847,446.682,407.65,539.173"/>
<path fill="#FFFFFF" d="M192.629,500.971c70.907,57.19,148.194,106.547,229.714,146.702
	c83.021,40.893,170.733,72.379,260.699,93.582c92.565,21.815,188.131,32.877,284.043,32.877c93.935,0,187.583-10.614,278.343-31.548
	c88.247-20.354,174.415-50.6,256.113-89.902c80.214-38.588,156.49-86.072,226.711-141.137
	c69.748-54.693,133.729-117.021,190.166-185.256l1.582-1.913v-66.679l-12.439,15.939c-54.373,69.678-116.662,133.443-185.14,189.531
	c-68.868,56.406-144.075,105.107-223.536,144.753c-80.91,40.369-166.472,71.457-254.308,92.402
	c-90.396,21.555-183.759,32.483-277.492,32.483c-95.76,0-191.082-11.401-283.318-33.889
	c-89.588-21.843-176.708-54.236-258.938-96.28c-80.769-41.296-156.96-91.965-226.46-150.597
	C129.211,393.697,66.683,327.474,12.521,255.21L0,238.504v68.338l1.503,1.886C57.849,379.449,122.152,444.13,192.629,500.971"/>
<path fill="#FFFFFF" d="M200.957,619.205c72.429,51.448,150.251,95.701,231.302,131.526
	c82.565,36.495,169.173,64.545,257.419,83.372c90.631,19.335,183.965,29.139,277.407,29.139c91.636,0,183.207-9.432,272.167-28.033
	c86.648-18.119,171.791-45.131,253.062-80.287c79.779-34.512,156.553-77.177,228.184-126.811
	c70.977-49.18,137.443-105.569,197.557-167.604l1.945-2.008v-60.563l-12.061,13.018c-58.479,63.116-123.566,120.564-193.453,170.753
	c-70.483,50.614-146.297,94.162-225.334,129.431c-80.508,35.926-165.006,63.54-251.146,82.079
	c-88.49,19.045-179.641,28.701-270.921,28.701c-93.111,0-186.047-10.044-276.225-29.855
	c-87.752-19.277-173.72-47.975-255.516-85.293c-80.303-36.637-157.144-81.832-228.389-134.328
	c-70.675-52.076-136.222-111.614-194.82-176.958L0,381.949v61.656l1.871,1.99C62.176,509.794,129.159,568.205,200.957,619.205"/>
<path fill="#FFFFFF" d="M967.085,952.35c178.892,0,353.321-33.017,518.444-98.135c159.453-62.881,304.869-153.431,432.209-269.136
	l2.262-2.056v-56.676l-11.73,11.059c-61.422,57.898-128.52,110.393-199.432,156.025c-71.64,46.101-147.898,85.66-226.658,117.58
	c-163.742,66.364-337.045,100.012-515.095,100.012c-181.471,0-357.861-34.909-524.272-103.762
	c-80-33.101-157.316-74.092-229.799-121.835c-71.77-47.274-139.467-101.602-201.213-161.478L0,512.506v57.426l2.192,2.048
	C264.876,817.265,607.548,952.35,967.085,952.35"/>
<path fill="#FFFFFF" d="M452.135,951.667c164.363,59.583,337.618,89.794,514.95,89.794c174.196,0,344.569-29.177,506.39-86.72
	c161.283-57.353,310.662-141.661,443.987-250.584l2.538-2.073v-55.023l-11.441,9.638
	c-128.992,108.641-274.217,193.435-431.643,252.024c-162.979,60.657-334.511,91.412-509.831,91.412
	c-178.563,0-353.07-31.873-518.673-94.735c-159.943-60.714-306.94-148.438-436.905-260.734L0,634.722v55.589l2.472,2.071
	C136.968,805.023,288.256,892.26,452.135,951.667"/>
<path fill="#FFFFFF" d="M1369.436,1079.777c198.592-51.277,382.892-139.493,547.778-262.198l2.786-2.073V763.48l-11.186,8.559
	c-98.489,75.344-205.76,138.604-318.832,188.021c-112.955,49.365-232.121,85.104-354.188,106.221L1156.495,1080h212.081
	L1369.436,1079.777z"/>
<path fill="#FFFFFF" d="M1565.629,1066.656l-34.23,13.344h110.301l1.336-0.585c95.527-41.771,187.699-92.899,273.957-151.966
	l3.008-2.061v-50.503l-10.957,7.691C1802.3,957.503,1686.759,1019.436,1565.629,1066.656"/>
<path fill="#FFFFFF" d="M270.61,971.697c93.9,45.568,192.858,81.933,294.126,108.08l0.858,0.223h212.082l-79.299-13.719
	c-124.998-21.624-246.876-58.558-362.25-109.773C220.597,905.223,111.292,839.482,11.25,761.116L0,752.303v52.485l2.723,2.073
	C86.347,870.556,176.477,926.015,270.61,971.697"/>
<path fill="#FFFFFF" d="M291.136,1079.415l1.336,0.585h110.302l-34.231-13.344C242.02,1017.334,121.73,952.03,11.016,872.557
	L0,864.648v50.886l2.949,2.063C93.359,980.889,190.318,1035.332,291.136,1079.415"/>
<path fill="#FFFFFF" d="M3.152,1025.386c28.898,18.746,58.627,36.814,88.357,53.704l1.603,0.91h86.85l-24.517-13.007
	c-49.342-26.179-98.004-55.144-144.639-86.091L0,973.73v49.61L3.152,1025.386z"/>
<path fill="#FFFFFF" d="M1778.727,1066.993L1754.208,1080h86.849l1.603-0.91c24.837-14.109,49.778-29.105,74.132-44.572l3.209-2.037
	v-49.293l-10.75,6.982C1867.027,1017.598,1823.113,1043.443,1778.727,1066.993"/>
</svg>
