<?xml version="1.0" encoding="UTF-8" standalone="no"?>
<svg width="2356px" height="1313px" viewBox="0 0 2356 1313" version="1.1" xmlns="http://www.w3.org/2000/svg" xmlns:xlink="http://www.w3.org/1999/xlink">
    <!-- Generator: Sketch 39.1 (31720) - http://www.bohemiancoding.com/sketch -->
    <title>vs-color-wave-1</title>
    <desc>Created with Sketch.</desc>
    <defs>
        <linearGradient x1="100%" y1="50%" x2="65.0729756%" y2="50%" id="linearGradient-1">
            <stop stop-color="#858585" offset="0%"></stop>
            <stop stop-color="#FEFEFE" offset="100%"></stop>
        </linearGradient>
    </defs>
    <g id="Page-1" stroke="none" stroke-width="1" fill="none" fill-rule="evenodd" fill-opacity="0.2">
        <g id="vs-color-wave-1" fill="url(#linearGradient-1)">
            <g id="Group">
                <path d="M471.9,190.4 C595.2,190.4 657.7,156.8 718.1,124.3 C776,93.1 830.8,63.6 943,63.6 C1055.2,63.6 1109.9,93.1 1167.9,124.3 C1228.3,156.8 1290.7,190.4 1414,190.4 C1537.3,190.4 1599.7,156.8 1660.1,124.3 C1718,93.1 1772.8,63.6 1885,63.6 C1997.2,63.6 2051.9,93.1 2109.9,124.3 C2170.3,156.8 2232.7,190.4 2356,190.4 L2356,126.8 C2243.8,126.8 2189.1,97.3 2131.1,66.1 C2070.7,33.6 2008.3,0 1885,0 C1761.7,0 1699.3,33.6 1638.9,66.1 C1581,97.3 1526.2,126.8 1414,126.8 C1301.8,126.8 1247.1,97.3 1189.1,66.1 C1128.7,33.6 1066.3,0 943,0 C819.7,0 757.2,33.6 696.9,66.1 C638.9,97.3 584.2,126.8 472,126.8 C359.8,126.8 305,97.3 247.1,66.1 C186.7,33.6 124.3,0 1,0 L1,63.6 C113.2,63.6 167.9,93.1 225.9,124.3 C286.1,156.7 348.6,190.4 471.9,190.4" id="Shape"></path>
                <path d="M471.9,302.6 C595.2,302.6 657.7,269 718.1,236.5 C776,205.3 830.8,175.8 943,175.8 C1055.2,175.8 1109.9,205.3 1167.9,236.5 C1228.3,269 1290.7,302.6 1414,302.6 C1537.3,302.6 1599.7,269 1660.1,236.5 C1718,205.3 1772.8,175.8 1885,175.8 C1997.2,175.8 2051.9,205.3 2109.9,236.5 C2170.3,269 2232.7,302.6 2356,302.6 L2356,239 C2243.8,239 2189.1,209.5 2131.1,178.3 C2070.7,145.8 2008.3,112.2 1885,112.2 C1761.7,112.2 1699.3,145.8 1638.9,178.3 C1580.9,209.5 1526.1,239 1413.9,239 C1301.7,239 1247,209.5 1189,178.3 C1128.6,145.8 1066.2,112.2 942.9,112.2 C819.6,112.2 757.1,145.8 696.8,178.3 C638.8,209.5 584.1,239 471.9,239 C359.7,239 304.9,209.5 247,178.3 C186.6,145.8 124.2,112.2 0.9,112.2 L0.9,175.8 C113.1,175.8 167.8,205.3 225.8,236.5 C286.1,269 348.6,302.6 471.9,302.6" id="Shape"></path>
                <path d="M471.9,414.9 C595.2,414.9 657.7,381.3 718.1,348.8 C776,317.6 830.8,288.1 943,288.1 C1055.2,288.1 1109.9,317.6 1167.9,348.8 C1228.3,381.3 1290.7,414.9 1414,414.9 C1537.3,414.9 1599.7,381.3 1660.1,348.8 C1718,317.6 1772.8,288.1 1885,288.1 C1997.2,288.1 2051.9,317.6 2109.9,348.8 C2170.3,381.3 2232.7,414.9 2356,414.9 L2356,351.3 C2243.8,351.3 2189.1,321.8 2131.1,290.6 C2070.7,258.1 2008.3,224.5 1885,224.5 C1761.7,224.5 1699.3,258.1 1638.9,290.6 C1581,321.8 1526.2,351.3 1414,351.3 C1301.8,351.3 1247.1,321.8 1189.1,290.6 C1128.7,258 1066.3,224.4 942.9,224.4 C819.6,224.4 757.1,258 696.8,290.5 C638.8,321.7 584.1,351.2 471.9,351.2 C359.7,351.2 304.9,321.7 247,290.5 C186.6,258 124.2,224.4 0.9,224.4 L0.9,288 C113.1,288 167.8,317.5 225.8,348.7 C286.1,381.3 348.6,414.9 471.9,414.9" id="Shape"></path>
                <path d="M718,461 C776,429.8 830.7,400.3 942.9,400.3 C1055.1,400.3 1109.8,429.8 1167.8,461 C1228.2,493.5 1290.6,527.1 1413.9,527.1 C1537.2,527.1 1599.6,493.5 1660,461 C1718,429.8 1772.7,400.3 1884.9,400.3 C1997.1,400.3 2051.8,429.8 2109.8,461 C2170.2,493.5 2232.6,527.1 2355.9,527.1 L2355.9,463.5 C2243.7,463.5 2189,434 2131,402.8 C2070.6,370.3 2008.2,336.7 1884.9,336.7 C1761.6,336.7 1699.2,370.3 1638.8,402.8 C1580.9,434 1526.1,463.5 1413.9,463.5 C1301.7,463.5 1247,434 1189.1,402.8 C1128.7,370.3 1066.3,336.7 943,336.7 C819.7,336.7 757.2,370.3 696.9,402.8 C638.9,434 584.2,463.5 472,463.5 C359.8,463.5 305,434 247.1,402.8 C186.7,370.3 124.3,336.7 1,336.7 L1,400.3 C113.2,400.3 167.9,429.8 225.9,461 C286.1,493.5 348.6,527.1 471.9,527.1 C595.2,527.1 657.7,493.5 718,461 Z" id="Shape"></path>
                <path d="M471.9,639.4 C595.2,639.4 657.7,605.8 718.1,573.3 C776,542.1 830.7,512.6 942.9,512.6 C1055.1,512.6 1109.8,542.1 1167.8,573.3 C1228.2,605.8 1290.6,639.4 1413.9,639.4 C1537.2,639.4 1599.6,605.8 1660,573.3 C1718,542.1 1772.7,512.6 1884.9,512.6 C1997.1,512.6 2051.8,542.1 2109.8,573.3 C2170.2,605.8 2232.6,639.4 2355.9,639.4 L2355.9,575.8 C2243.7,575.8 2189,546.3 2131,515.1 C2070.7,482.6 2008.2,449 1884.9,449 C1761.6,449 1699.2,482.6 1638.8,515.1 C1580.9,546.3 1526.1,575.8 1413.9,575.8 C1301.7,575.8 1247,546.3 1189,515.1 C1128.7,482.6 1066.3,449 942.9,449 C819.6,449 757.1,482.6 696.8,515.1 C638.8,546.3 584.1,575.8 471.9,575.8 C359.7,575.8 304.9,546.3 247,515.1 C186.6,482.6 124.2,449 0.9,449 L0.9,512.6 C113.1,512.6 167.8,542.1 225.8,573.3 C286.1,605.8 348.6,639.4 471.9,639.4" id="Shape"></path>
                <path d="M471.9,751.7 C595.2,751.7 657.7,718.1 718.1,685.6 C776,654.4 830.8,624.9 943,624.9 C1055.2,624.9 1109.9,654.4 1167.9,685.6 C1228.3,718.1 1290.7,751.7 1414,751.7 C1537.3,751.7 1599.7,718.1 1660.1,685.6 C1718,654.4 1772.8,624.9 1885,624.9 C1997.2,624.9 2051.9,654.4 2109.9,685.6 C2170.3,718.1 2232.7,751.7 2356,751.7 L2356,688 C2243.8,688 2189.1,658.5 2131.1,627.3 C2070.7,594.8 2008.3,561.2 1885,561.2 C1761.7,561.2 1699.3,594.8 1638.9,627.3 C1580.9,658.5 1526.1,688 1413.9,688 C1301.7,688 1247,658.5 1189,627.3 C1128.7,594.8 1066.3,561.2 942.9,561.2 C819.6,561.2 757.1,594.8 696.8,627.3 C638.8,658.5 584.1,688 471.9,688 C359.7,688 304.9,658.5 247,627.3 C186.6,594.8 124.2,561.2 0.9,561.2 L0.9,624.8 C113.1,624.8 167.8,654.3 225.8,685.5 C286.1,718 348.6,751.7 471.9,751.7" id="Shape"></path>
                <path d="M471.9,863.9 C595.2,863.9 657.7,830.3 718.1,797.8 C776,766.6 830.8,737.1 943,737.1 C1055.2,737.1 1109.9,766.6 1167.9,797.8 C1228.3,830.3 1290.7,863.9 1414,863.9 C1537.3,863.9 1599.7,830.3 1660.1,797.8 C1718,766.6 1772.8,737.1 1885,737.1 C1997.2,737.1 2051.9,766.6 2109.9,797.8 C2170.3,830.3 2232.7,863.9 2356,863.9 L2356,800.3 C2243.8,800.3 2189.1,770.8 2131.1,739.6 C2070.7,707.1 2008.3,673.5 1885,673.5 C1761.7,673.5 1699.3,707.1 1638.9,739.6 C1581,770.8 1526.2,800.3 1414,800.3 C1301.8,800.3 1247.1,770.8 1189.1,739.6 C1128.7,707.1 1066.3,673.5 943,673.5 C819.7,673.5 757.2,707.1 696.9,739.6 C638.9,770.8 584.2,800.3 472,800.3 C359.8,800.3 305,770.8 247.1,739.6 C186.7,707.1 124.3,673.5 1,673.5 L1,737.1 C113.2,737.1 167.9,766.6 225.9,797.8 C286.1,830.3 348.6,863.9 471.9,863.9" id="Shape"></path>
                <path d="M471.9,976.2 C595.2,976.2 657.7,942.6 718.1,910.1 C776,878.9 830.8,849.4 943,849.4 C1055.2,849.4 1109.9,878.9 1167.9,910.1 C1228.3,942.6 1290.7,976.2 1414,976.2 C1537.3,976.2 1599.7,942.6 1660.1,910.1 C1718,878.9 1772.8,849.4 1885,849.4 C1997.2,849.4 2051.9,878.9 2109.9,910.1 C2170.3,942.6 2232.7,976.2 2356,976.2 L2356,912.6 C2243.8,912.6 2189.1,883.1 2131.1,851.9 C2070.7,819.4 2008.3,785.8 1885,785.8 C1761.7,785.8 1699.3,819.4 1638.9,851.9 C1581,883.1 1526.2,912.6 1414,912.6 C1301.8,912.6 1247.1,883.1 1189.1,851.9 C1128.7,819.4 1066.3,785.8 943,785.8 C819.7,785.8 757.2,819.4 696.9,851.9 C638.9,883.1 584.2,912.6 472,912.6 C359.8,912.6 305,883.1 247.1,851.9 C186.7,819.4 124.3,785.8 1,785.8 L1,849.4 C113.2,849.4 167.9,878.9 225.9,910.1 C286.1,942.6 348.6,976.2 471.9,976.2" id="Shape"></path>
                <path d="M471.9,1088.5 C595.2,1088.5 657.7,1054.9 718.1,1022.4 C776,991.2 830.8,961.7 943,961.7 C1055.2,961.7 1109.9,991.2 1167.9,1022.4 C1228.3,1054.9 1290.7,1088.5 1414,1088.5 C1537.3,1088.5 1599.7,1054.9 1660.1,1022.4 C1718,991.2 1772.8,961.7 1885,961.7 C1997.2,961.7 2051.9,991.2 2109.9,1022.4 C2170.3,1054.9 2232.7,1088.5 2356,1088.5 L2356,1024.9 C2243.8,1024.9 2189.1,995.4 2131.1,964.2 C2070.7,931.7 2008.3,898.1 1885,898.1 C1761.7,898.1 1699.3,931.7 1638.9,964.2 C1581,995.4 1526.2,1024.9 1414,1024.9 C1301.8,1024.9 1247.1,995.4 1189.1,964.2 C1128.7,931.6 1066.3,898 942.9,898 C819.6,898 757.1,931.6 696.8,964.1 C638.8,995.3 584.1,1024.8 471.9,1024.8 C359.7,1024.8 304.9,995.3 247,964.1 C186.6,931.6 124.2,898 0.9,898 L0.9,961.6 C113.1,961.6 167.8,991.1 225.8,1022.3 C286.1,1054.8 348.6,1088.5 471.9,1088.5" id="Shape"></path>
                <path d="M471.9,1200.7 C595.2,1200.7 657.7,1167.1 718.1,1134.6 C776,1103.4 830.8,1073.9 943,1073.9 C1055.2,1073.9 1109.9,1103.4 1167.9,1134.6 C1228.3,1167.1 1290.7,1200.7 1414,1200.7 C1537.3,1200.7 1599.7,1167.1 1660.1,1134.6 C1718,1103.4 1772.8,1073.9 1885,1073.9 C1997.2,1073.9 2051.9,1103.4 2109.9,1134.6 C2170.3,1167.1 2232.7,1200.7 2356,1200.7 L2356,1137.1 C2243.8,1137.1 2189.1,1107.6 2131.1,1076.4 C2070.7,1043.9 2008.3,1010.3 1885,1010.3 C1761.7,1010.3 1699.3,1043.9 1638.9,1076.4 C1581,1107.6 1526.2,1137.1 1414,1137.1 C1301.8,1137.1 1247.1,1107.6 1189.1,1076.4 C1128.7,1043.9 1066.3,1010.3 943,1010.3 C819.7,1010.3 757.2,1043.9 696.9,1076.4 C638.9,1107.6 584.2,1137.1 472,1137.1 C359.8,1137.1 305,1107.6 247.1,1076.4 C186.7,1043.9 124.3,1010.3 1,1010.3 L1,1073.9 C113.2,1073.9 167.9,1103.4 225.9,1134.6 C286.1,1167.1 348.6,1200.7 471.9,1200.7" id="Shape"></path>
                <path d="M471.9,1313 C595.2,1313 657.7,1279.4 718.1,1246.9 C776,1215.7 830.8,1186.2 943,1186.2 C1055.2,1186.2 1109.9,1215.7 1167.9,1246.9 C1228.3,1279.4 1290.7,1313 1414,1313 C1537.3,1313 1599.7,1279.4 1660.1,1246.9 C1718,1215.7 1772.8,1186.2 1885,1186.2 C1997.2,1186.2 2051.9,1215.7 2109.9,1246.9 C2170.3,1279.4 2232.7,1313 2356,1313 L2356,1249.4 C2243.8,1249.4 2189.1,1219.9 2131.1,1188.7 C2070.7,1156.2 2008.3,1122.6 1885,1122.6 C1761.7,1122.6 1699.3,1156.2 1638.9,1188.7 C1581,1219.9 1526.2,1249.4 1414,1249.4 C1301.8,1249.4 1247.1,1219.9 1189.1,1188.7 C1128.7,1156.2 1066.3,1122.6 943,1122.6 C819.7,1122.6 757.2,1156.2 696.9,1188.7 C638.9,1219.9 584.2,1249.4 472,1249.4 C359.8,1249.4 305,1219.9 247.1,1188.7 C186.7,1156.2 124.3,1122.6 1,1122.6 L1,1186.2 C113.2,1186.2 167.9,1215.7 225.9,1246.9 C286.1,1279.4 348.6,1313 471.9,1313" id="Shape"></path>
            </g>
        </g>
    </g>
</svg>