<?xml version="1.0" encoding="UTF-8" standalone="no"?>
<svg width="36px" height="36px" viewBox="0 0 36 36" version="1.1" xmlns="http://www.w3.org/2000/svg" xmlns:xlink="http://www.w3.org/1999/xlink">
    <!-- Generator: Sketch 39.1 (31720) - http://www.bohemiancoding.com/sketch -->
    <title>Group 2</title>
    <desc>Created with Sketch.</desc>
    <defs>
        <path d="M18,1.71429735 C9.00598653,1.71429735 1.71429735,9.0060354 1.71429735,18.0000489 C1.71429735,22.6165663 3.64288798,26.7745889 6.72856456,29.7377005 C7.05603988,29.2534514 7.40575087,28.7699843 7.71426477,28.2857352 C7.71426477,28.2857352 9.14570477,25.934569 14.5714542,25.7143136 C15.1242673,25.7143136 15.4002829,25.3525807 15.4002829,24.8005984 L15.4011137,24.8005984 C15.4002829,24.3540278 15.4002829,24.0000163 15.4002829,24.0000163 C15.4002829,23.8885936 15.3822989,23.7883131 15.3771187,23.6803112 C14.7565723,23.3871424 14.0365273,22.9825997 13.2008568,22.3997318 C13.2008568,22.3997318 11.1436903,21.1345951 11.1436903,19.7142973 C11.1436903,19.7142973 10.286566,15.3291287 10.286566,13.7142811 C10.286566,9.73375289 11.9888414,6.00001629 18.0008797,6.00001629 C23.932283,6.00001629 25.7151444,9.73375289 25.7151444,13.7142811 C25.7151444,15.2897398 24.8580202,19.7142973 24.8580202,19.7142973 C24.8580202,21.0951573 22.8008536,22.3997318 22.8008536,22.3997318 C21.9822875,23.017737 21.2571112,23.4300011 20.6211709,23.7248803 C20.6168703,23.8182702 20.6014275,23.9039875 20.6014275,24.0000163 C20.6014275,24.0000163 20.6005968,24.3540278 20.6005968,24.8005984 L20.6014275,24.8005984 C20.5997171,25.3525807 20.8757327,25.7143136 21.4285458,25.7143136 C26.9348324,25.9611541 28.2857352,28.2857352 28.2857352,28.2857352 C28.594298,28.7699843 28.9431293,29.2534514 29.2705558,29.7377005 C32.3562812,26.7745889 34.2857027,22.6165663 34.2857027,18.0000489 C34.2857027,9.0060354 26.9940135,1.71429735 18,1.71429735 M27.9711126,30.8571568 C27.8365746,30.659186 27.6668992,30.4131275 27.5306019,30.2211676 C27.2931444,29.8834785 27.0557358,29.5456917 26.843153,29.2114724 C26.8328415,29.1959807 25.6585534,27.6205709 21.4285458,27.4285621 C19.9568373,27.4285621 18.8871302,26.3245486 18.884589,24.8005984 L18.8571242,24.0000163 C18.8571242,23.884293 18.8434407,24.1268818 18.8571242,24.0000163 L18.8571242,23.142892 L19.7142973,22.2857189 C20.3408547,21.9951891 21.1371363,21.5065417 21.7671634,21.0308449 L21.8828378,20.9511385 C22.3808681,20.6349032 23.0768692,19.9689081 23.1428432,19.7142973 L23.1737288,19.3877506 C23.4934338,17.7394761 23.9999674,14.7411784 23.9999674,13.7142811 C23.9999674,9.67716187 22.0371192,7.71431364 18,7.71431364 C13.9071206,7.71431364 12.0000326,9.62057085 12.0000326,13.7142811 C12.0000326,14.7685942 12.5065662,17.7522799 12.8253916,19.3851605 L12.8554464,19.6868815 C12.9094473,19.9551268 13.5402563,20.5902853 14.0974677,20.9400451 L14.1814257,20.9931664 C14.8568527,21.4654424 15.6642766,21.9917193 16.2857027,22.2857189 L17.1428758,23.142892 L17.1428758,24.0000163 C17.1548488,24.1182808 17.1428758,23.8748612 17.1428758,24.0000163 L17.1145803,24.8005984 C17.1145803,26.3220073 16.0465347,27.4268517 14.6433902,27.4268517 L14.640849,27.4268517 C10.3928574,27.5991171 9.16114757,29.2071719 9.15943713,29.2071719 C8.94343342,29.5465714 8.70685559,29.8834785 8.46768768,30.2219984 C8.33310075,30.4140071 8.1634743,30.659186 8.02800772,30.8571568 C10.7854271,32.9983303 14.2380168,34.2857515 17.9991203,34.2857515 C21.7602728,34.2857515 25.2136933,32.9983303 27.9711126,30.8571568 M18,36 C8.05884445,36 0,27.9411555 0,18.0000489 C0,8.05889332 8.05884445,0 18,0 C27.9411555,0 36,8.05889332 36,18.0000489 C36,27.9411555 27.9411555,36 18,36 Z" id="path-1"></path>
    </defs>
    <g id="Page-1" stroke="none" stroke-width="1" fill="none" fill-rule="evenodd">
        <g id="Header-mobile-Copy-20" transform="translate(-192.000000, -15.000000)">
            <g id="Group-2" transform="translate(192.000000, 16.000000)">
                <path d="M18,33.3333333 C27.2047458,33.3333333 34.6666667,25.8714125 34.6666667,16.6666667 C34.6666667,7.46192084 27.2047458,0 18,0 C8.79525417,0 1.33333333,7.46192084 1.33333333,16.6666667 C1.33333333,25.8714125 8.79525417,33.3333333 18,33.3333333 Z" id="Oval-51" stroke="#FFFFFF" stroke-width="1.5"></path>
                <g id="Oval-2">
                    <mask id="mask-2" fill="white">
                        <use xlink:href="#path-1"></use>
                    </mask>
                    <g id="Mask"></g>
                    <circle fill="#FFFFFF" mask="url(#mask-2)" cx="18" cy="18" r="15.3333333"></circle>
                </g>
            </g>
        </g>
    </g>
</svg>