<?xml version="1.0" encoding="UTF-8" standalone="no"?>
<svg width="100px" height="60px" viewBox="0 0 100 60" version="1.1" xmlns="http://www.w3.org/2000/svg" xmlns:xlink="http://www.w3.org/1999/xlink">
    <!-- Generator: Sketch 39.1 (31720) - http://www.bohemiancoding.com/sketch -->
    <title>Group 7</title>
    <desc>Created with Sketch.</desc>
    <defs></defs>
    <g id="Page-1" stroke="none" stroke-width="1" fill="none" fill-rule="evenodd">
        <g id="splash-screen-mobile" transform="translate(-111.000000, -396.000000)">
            <g id="Group-7" transform="translate(111.000000, 396.000000)">
                <g id="Group-4" transform="translate(0.529011, 0.000000)">
                    <rect id="Rectangle-233" fill="#FFFFFF" x="0" y="0.214107264" width="98.8030082" height="58.8772784"></rect>
                    <rect id="Rectangle-323-Copy-6" fill="#FF0000" x="45.8343682" y="27.0752206" width="52.9686401" height="4.74312143"></rect>
                    <rect id="Rectangle-323-Copy-12" fill="#FF0000" x="0" y="36.2822407" width="98.8030082" height="4.74312143"></rect>
                    <rect id="Rectangle-323-Copy-13" fill="#FF0000" x="0" y="45.2995813" width="98.8030082" height="4.74312143"></rect>
                    <rect id="Rectangle-323-Copy-9" fill="#FF0000" x="45.8343682" y="0" width="52.9686401" height="4.74312143"></rect>
                    <rect id="Rectangle-323-Copy-10" fill="#FF0000" x="45.8343682" y="9.23021914" width="52.9686401" height="4.74312143"></rect>
                    <rect id="Rectangle-323-Copy-11" fill="#FF0000" x="45.8343682" y="18.2475597" width="52.9686401" height="4.74312143"></rect>
                    <rect id="Rectangle-323-Copy-7" fill="#FF0000" x="0" y="54.3482642" width="98.8030082" height="4.74312143"></rect>
                    <rect id="Rectangle-337" fill="#0032AC" x="0" y="0" width="41.4972635" height="31.818342"></rect>
                </g>
                <g id="Group-5" transform="translate(2.724634, 2.195889)" fill="#FFFFFF">
                    <polygon id="Star-1" points="1.56612075 2.27305933 0.598204895 2.97930102 0.970696522 1.84040569 -8.21703816e-14 1.13799173 1.19812834 1.14035739 1.56612075 0 1.93411316 1.14035739 3.13224149 1.13799173 2.16154497 1.84040569 2.5340366 2.97930102"></polygon>
                    <polygon id="Star-1-Copy" points="6.34944099 2.27305933 5.38152513 2.97930102 5.75401676 1.84040569 4.78332024 1.13799173 5.98144858 1.14035739 6.34944099 0 6.7174334 1.14035739 7.91556173 1.13799173 6.94486521 1.84040569 7.31735684 2.97930102"></polygon>
                    <polygon id="Star-1-Copy-2" points="11.1327612 2.27305933 10.1648454 2.97930102 10.537337 1.84040569 9.56664048 1.13799173 10.7647688 1.14035739 11.1327612 0 11.5007536 1.14035739 12.698882 1.13799173 11.7281855 1.84040569 12.1006771 2.97930102"></polygon>
                    <polygon id="Star-1-Copy-3" points="15.9160815 2.27305933 14.9481656 2.97930102 15.3206572 1.84040569 14.3499607 1.13799173 15.5480891 1.14035739 15.9160815 0 16.2840739 1.14035739 17.4822022 1.13799173 16.5115057 1.84040569 16.8839973 2.97930102"></polygon>
                    <polygon id="Star-1-Copy-4" points="20.6994017 2.27305933 19.7314859 2.97930102 20.1039775 1.84040569 19.133281 1.13799173 20.3314093 1.14035739 20.6994017 0 21.0673941 1.14035739 22.2655225 1.13799173 21.2948259 1.84040569 21.6673176 2.97930102"></polygon>
                    <polygon id="Star-1-Copy-5" points="25.4827219 2.27305933 24.5148061 2.97930102 24.8872977 1.84040569 23.9166012 1.13799173 25.1147295 1.14035739 25.4827219 0 25.8507144 1.14035739 27.0488427 1.13799173 26.0781462 1.84040569 26.4506378 2.97930102"></polygon>
                    <polygon id="Star-1-Copy-6" points="30.2660422 2.27305933 29.2981263 2.97930102 29.670618 1.84040569 28.6999214 1.13799173 29.8980498 1.14035739 30.2660422 0 30.6340346 1.14035739 31.8321629 1.13799173 30.8614664 1.84040569 31.233958 2.97930102"></polygon>
                    <polygon id="Star-1-Copy-7" points="35.0493624 2.27305933 34.0814466 2.97930102 34.4539382 1.84040569 33.4832417 1.13799173 34.68137 1.14035739 35.0493624 0 35.4173548 1.14035739 36.6154832 1.13799173 35.6447867 1.84040569 36.0172783 2.97930102"></polygon>
                </g>
                <g id="Group-5-Copy" transform="translate(2.724634, 7.136641)" fill="#FFFFFF">
                    <polygon id="Star-1" points="1.56612075 2.27305933 0.598204895 2.97930102 0.970696522 1.84040569 -8.21842594e-14 1.13799173 1.19812834 1.14035739 1.56612075 0 1.93411316 1.14035739 3.13224149 1.13799173 2.16154497 1.84040569 2.5340366 2.97930102"></polygon>
                    <polygon id="Star-1-Copy" points="6.34944099 2.27305933 5.38152513 2.97930102 5.75401676 1.84040569 4.78332024 1.13799173 5.98144858 1.14035739 6.34944099 0 6.7174334 1.14035739 7.91556173 1.13799173 6.94486521 1.84040569 7.31735684 2.97930102"></polygon>
                    <polygon id="Star-1-Copy-2" points="11.1327612 2.27305933 10.1648454 2.97930102 10.537337 1.84040569 9.56664048 1.13799173 10.7647688 1.14035739 11.1327612 0 11.5007536 1.14035739 12.698882 1.13799173 11.7281855 1.84040569 12.1006771 2.97930102"></polygon>
                    <polygon id="Star-1-Copy-3" points="15.9160815 2.27305933 14.9481656 2.97930102 15.3206572 1.84040569 14.3499607 1.13799173 15.5480891 1.14035739 15.9160815 0 16.2840739 1.14035739 17.4822022 1.13799173 16.5115057 1.84040569 16.8839973 2.97930102"></polygon>
                    <polygon id="Star-1-Copy-4" points="20.6994017 2.27305933 19.7314859 2.97930102 20.1039775 1.84040569 19.133281 1.13799173 20.3314093 1.14035739 20.6994017 0 21.0673941 1.14035739 22.2655225 1.13799173 21.2948259 1.84040569 21.6673176 2.97930102"></polygon>
                    <polygon id="Star-1-Copy-5" points="25.4827219 2.27305933 24.5148061 2.97930102 24.8872977 1.84040569 23.9166012 1.13799173 25.1147295 1.14035739 25.4827219 0 25.8507144 1.14035739 27.0488427 1.13799173 26.0781462 1.84040569 26.4506378 2.97930102"></polygon>
                    <polygon id="Star-1-Copy-6" points="30.2660422 2.27305933 29.2981263 2.97930102 29.670618 1.84040569 28.6999214 1.13799173 29.8980498 1.14035739 30.2660422 0 30.6340346 1.14035739 31.8321629 1.13799173 30.8614664 1.84040569 31.233958 2.97930102"></polygon>
                    <polygon id="Star-1-Copy-7" points="35.0493624 2.27305933 34.0814466 2.97930102 34.4539382 1.84040569 33.4832417 1.13799173 34.68137 1.14035739 35.0493624 0 35.4173548 1.14035739 36.6154832 1.13799173 35.6447867 1.84040569 36.0172783 2.97930102"></polygon>
                </g>
                <g id="Group-5-Copy-2" transform="translate(2.724634, 12.077392)" fill="#FFFFFF">
                    <polygon id="Star-1" points="1.56612075 2.27305933 0.598204895 2.97930102 0.970696522 1.84040569 -8.21842594e-14 1.13799173 1.19812834 1.14035739 1.56612075 0 1.93411316 1.14035739 3.13224149 1.13799173 2.16154497 1.84040569 2.5340366 2.97930102"></polygon>
                    <polygon id="Star-1-Copy" points="6.34944099 2.27305933 5.38152513 2.97930102 5.75401676 1.84040569 4.78332024 1.13799173 5.98144858 1.14035739 6.34944099 0 6.7174334 1.14035739 7.91556173 1.13799173 6.94486521 1.84040569 7.31735684 2.97930102"></polygon>
                    <polygon id="Star-1-Copy-2" points="11.1327612 2.27305933 10.1648454 2.97930102 10.537337 1.84040569 9.56664048 1.13799173 10.7647688 1.14035739 11.1327612 0 11.5007536 1.14035739 12.698882 1.13799173 11.7281855 1.84040569 12.1006771 2.97930102"></polygon>
                    <polygon id="Star-1-Copy-3" points="15.9160815 2.27305933 14.9481656 2.97930102 15.3206572 1.84040569 14.3499607 1.13799173 15.5480891 1.14035739 15.9160815 0 16.2840739 1.14035739 17.4822022 1.13799173 16.5115057 1.84040569 16.8839973 2.97930102"></polygon>
                    <polygon id="Star-1-Copy-4" points="20.6994017 2.27305933 19.7314859 2.97930102 20.1039775 1.84040569 19.133281 1.13799173 20.3314093 1.14035739 20.6994017 0 21.0673941 1.14035739 22.2655225 1.13799173 21.2948259 1.84040569 21.6673176 2.97930102"></polygon>
                    <polygon id="Star-1-Copy-5" points="25.4827219 2.27305933 24.5148061 2.97930102 24.8872977 1.84040569 23.9166012 1.13799173 25.1147295 1.14035739 25.4827219 0 25.8507144 1.14035739 27.0488427 1.13799173 26.0781462 1.84040569 26.4506378 2.97930102"></polygon>
                    <polygon id="Star-1-Copy-6" points="30.2660422 2.27305933 29.2981263 2.97930102 29.670618 1.84040569 28.6999214 1.13799173 29.8980498 1.14035739 30.2660422 0 30.6340346 1.14035739 31.8321629 1.13799173 30.8614664 1.84040569 31.233958 2.97930102"></polygon>
                    <polygon id="Star-1-Copy-7" points="35.0493624 2.27305933 34.0814466 2.97930102 34.4539382 1.84040569 33.4832417 1.13799173 34.68137 1.14035739 35.0493624 0 35.4173548 1.14035739 36.6154832 1.13799173 35.6447867 1.84040569 36.0172783 2.97930102"></polygon>
                </g>
                <g id="Group-5-Copy-3" transform="translate(2.724634, 16.469171)" fill="#FFFFFF">
                    <polygon id="Star-1" points="1.56612075 2.27305933 0.598204895 2.97930102 0.970696522 1.84040569 -8.21842594e-14 1.13799173 1.19812834 1.14035739 1.56612075 0 1.93411316 1.14035739 3.13224149 1.13799173 2.16154497 1.84040569 2.5340366 2.97930102"></polygon>
                    <polygon id="Star-1-Copy" points="6.34944099 2.27305933 5.38152513 2.97930102 5.75401676 1.84040569 4.78332024 1.13799173 5.98144858 1.14035739 6.34944099 0 6.7174334 1.14035739 7.91556173 1.13799173 6.94486521 1.84040569 7.31735684 2.97930102"></polygon>
                    <polygon id="Star-1-Copy-2" points="11.1327612 2.27305933 10.1648454 2.97930102 10.537337 1.84040569 9.56664048 1.13799173 10.7647688 1.14035739 11.1327612 0 11.5007536 1.14035739 12.698882 1.13799173 11.7281855 1.84040569 12.1006771 2.97930102"></polygon>
                    <polygon id="Star-1-Copy-3" points="15.9160815 2.27305933 14.9481656 2.97930102 15.3206572 1.84040569 14.3499607 1.13799173 15.5480891 1.14035739 15.9160815 0 16.2840739 1.14035739 17.4822022 1.13799173 16.5115057 1.84040569 16.8839973 2.97930102"></polygon>
                    <polygon id="Star-1-Copy-4" points="20.6994017 2.27305933 19.7314859 2.97930102 20.1039775 1.84040569 19.133281 1.13799173 20.3314093 1.14035739 20.6994017 0 21.0673941 1.14035739 22.2655225 1.13799173 21.2948259 1.84040569 21.6673176 2.97930102"></polygon>
                    <polygon id="Star-1-Copy-5" points="25.4827219 2.27305933 24.5148061 2.97930102 24.8872977 1.84040569 23.9166012 1.13799173 25.1147295 1.14035739 25.4827219 0 25.8507144 1.14035739 27.0488427 1.13799173 26.0781462 1.84040569 26.4506378 2.97930102"></polygon>
                    <polygon id="Star-1-Copy-6" points="30.2660422 2.27305933 29.2981263 2.97930102 29.670618 1.84040569 28.6999214 1.13799173 29.8980498 1.14035739 30.2660422 0 30.6340346 1.14035739 31.8321629 1.13799173 30.8614664 1.84040569 31.233958 2.97930102"></polygon>
                    <polygon id="Star-1-Copy-7" points="35.0493624 2.27305933 34.0814466 2.97930102 34.4539382 1.84040569 33.4832417 1.13799173 34.68137 1.14035739 35.0493624 0 35.4173548 1.14035739 36.6154832 1.13799173 35.6447867 1.84040569 36.0172783 2.97930102"></polygon>
                </g>
                <g id="Group-5-Copy-4" transform="translate(2.724634, 21.409922)" fill="#FFFFFF">
                    <polygon id="Star-1" points="1.56612075 2.27305933 0.598204895 2.97930102 0.970696522 1.84040569 -8.21703816e-14 1.13799173 1.19812834 1.14035739 1.56612075 0 1.93411316 1.14035739 3.13224149 1.13799173 2.16154497 1.84040569 2.5340366 2.97930102"></polygon>
                    <polygon id="Star-1-Copy" points="6.34944099 2.27305933 5.38152513 2.97930102 5.75401676 1.84040569 4.78332024 1.13799173 5.98144858 1.14035739 6.34944099 0 6.7174334 1.14035739 7.91556173 1.13799173 6.94486521 1.84040569 7.31735684 2.97930102"></polygon>
                    <polygon id="Star-1-Copy-2" points="11.1327612 2.27305933 10.1648454 2.97930102 10.537337 1.84040569 9.56664048 1.13799173 10.7647688 1.14035739 11.1327612 0 11.5007536 1.14035739 12.698882 1.13799173 11.7281855 1.84040569 12.1006771 2.97930102"></polygon>
                    <polygon id="Star-1-Copy-3" points="15.9160815 2.27305933 14.9481656 2.97930102 15.3206572 1.84040569 14.3499607 1.13799173 15.5480891 1.14035739 15.9160815 0 16.2840739 1.14035739 17.4822022 1.13799173 16.5115057 1.84040569 16.8839973 2.97930102"></polygon>
                    <polygon id="Star-1-Copy-4" points="20.6994017 2.27305933 19.7314859 2.97930102 20.1039775 1.84040569 19.133281 1.13799173 20.3314093 1.14035739 20.6994017 0 21.0673941 1.14035739 22.2655225 1.13799173 21.2948259 1.84040569 21.6673176 2.97930102"></polygon>
                    <polygon id="Star-1-Copy-5" points="25.4827219 2.27305933 24.5148061 2.97930102 24.8872977 1.84040569 23.9166012 1.13799173 25.1147295 1.14035739 25.4827219 0 25.8507144 1.14035739 27.0488427 1.13799173 26.0781462 1.84040569 26.4506378 2.97930102"></polygon>
                    <polygon id="Star-1-Copy-6" points="30.2660422 2.27305933 29.2981263 2.97930102 29.670618 1.84040569 28.6999214 1.13799173 29.8980498 1.14035739 30.2660422 0 30.6340346 1.14035739 31.8321629 1.13799173 30.8614664 1.84040569 31.233958 2.97930102"></polygon>
                    <polygon id="Star-1-Copy-7" points="35.0493624 2.27305933 34.0814466 2.97930102 34.4539382 1.84040569 33.4832417 1.13799173 34.68137 1.14035739 35.0493624 0 35.4173548 1.14035739 36.6154832 1.13799173 35.6447867 1.84040569 36.0172783 2.97930102"></polygon>
                </g>
                <g id="Group-5-Copy-5" transform="translate(2.724634, 26.350674)" fill="#FFFFFF">
                    <polygon id="Star-1" points="1.56612075 2.27305933 0.598204895 2.97930102 0.970696522 1.84040569 -8.21842594e-14 1.13799173 1.19812834 1.14035739 1.56612075 0 1.93411316 1.14035739 3.13224149 1.13799173 2.16154497 1.84040569 2.5340366 2.97930102"></polygon>
                    <polygon id="Star-1-Copy" points="6.34944099 2.27305933 5.38152513 2.97930102 5.75401676 1.84040569 4.78332024 1.13799173 5.98144858 1.14035739 6.34944099 0 6.7174334 1.14035739 7.91556173 1.13799173 6.94486521 1.84040569 7.31735684 2.97930102"></polygon>
                    <polygon id="Star-1-Copy-2" points="11.1327612 2.27305933 10.1648454 2.97930102 10.537337 1.84040569 9.56664048 1.13799173 10.7647688 1.14035739 11.1327612 0 11.5007536 1.14035739 12.698882 1.13799173 11.7281855 1.84040569 12.1006771 2.97930102"></polygon>
                    <polygon id="Star-1-Copy-3" points="15.9160815 2.27305933 14.9481656 2.97930102 15.3206572 1.84040569 14.3499607 1.13799173 15.5480891 1.14035739 15.9160815 0 16.2840739 1.14035739 17.4822022 1.13799173 16.5115057 1.84040569 16.8839973 2.97930102"></polygon>
                    <polygon id="Star-1-Copy-4" points="20.6994017 2.27305933 19.7314859 2.97930102 20.1039775 1.84040569 19.133281 1.13799173 20.3314093 1.14035739 20.6994017 0 21.0673941 1.14035739 22.2655225 1.13799173 21.2948259 1.84040569 21.6673176 2.97930102"></polygon>
                    <polygon id="Star-1-Copy-5" points="25.4827219 2.27305933 24.5148061 2.97930102 24.8872977 1.84040569 23.9166012 1.13799173 25.1147295 1.14035739 25.4827219 0 25.8507144 1.14035739 27.0488427 1.13799173 26.0781462 1.84040569 26.4506378 2.97930102"></polygon>
                    <polygon id="Star-1-Copy-6" points="30.2660422 2.27305933 29.2981263 2.97930102 29.670618 1.84040569 28.6999214 1.13799173 29.8980498 1.14035739 30.2660422 0 30.6340346 1.14035739 31.8321629 1.13799173 30.8614664 1.84040569 31.233958 2.97930102"></polygon>
                    <polygon id="Star-1-Copy-7" points="35.0493624 2.27305933 34.0814466 2.97930102 34.4539382 1.84040569 33.4832417 1.13799173 34.68137 1.14035739 35.0493624 0 35.4173548 1.14035739 36.6154832 1.13799173 35.6447867 1.84040569 36.0172783 2.97930102"></polygon>
                </g>
            </g>
        </g>
    </g>
</svg>